<svg viewBox="0 0 800 800" xmlns="http://www.w3.org/2000/svg"><path d="M110.40475693128087,573.6116978049163 L21.288625957480292,625.0743532991216 M199.51346176711525,573.6116978049163 L188.48193011121526,568.5313868612202 M188.48193011121526,568.5313868612202 L175.76959096333405,564.9960521670444 M175.76959096333405,564.9960521670444 L162.0138394274906,563.1829378881691 M162.0138394274906,563.1829378881691 L147.90437927090562,563.1829378881691 M147.90437927090562,563.1829378881691 L134.14862773506218,564.9960521670444 M134.14862773506218,564.9960521670444 L121.43628858718097,568.53138686122 M121.43628858718097,568.53138686122 L110.40475693128087,573.6116978049163 M199.51346176711525,573.6116978049163 L400.03868259439844,689.4107147120549 M823.181586940513,444.9800721640052 L400.03868259439844,689.4107147120549 M778.6161003682024,419.25803404217663 L823.181586940513,444.9800721640052 M422.30007613263365,625.0743532991216 L778.6161003682024,419.25803404217663 M377.74324833539447,625.0743532991216 L383.25985192614075,627.6148105207317 M383.25985192614075,627.6148105207317 L389.6168362669474,629.3827128076025 M389.6168362669474,629.3827128076025 L396.4954110051509,630.289394428763 M396.4954110051509,630.289394428763 L403.5506691202454,630.2894030564394 M403.5506691202454,630.2894030564394 L410.4287594773717,629.3827095482645 M410.4287594773717,629.3827095482645 L416.7848138488147,627.6148119347038 M416.7848138488147,627.6148119347038 L422.30007613263365,625.0743532991216 M154.95910934919812,496.4284350567952 L377.74324833539447,625.0743532991216 M-23.263250943589924,599.3423107730598 L154.95910934919812,496.4284350567952 M21.288625957480292,625.0743532991216 L-23.263250943589924,599.3423107730598 M21.266342591722605,316.37130658771923 L110.39732996805071,264.91722558260824 M110.39732996805071,264.91722558260824 L110.40475693128087,573.6116978049163 M21.288625957480292,625.0743532991216 L21.266342591722605,316.37130658771923 M21.266342591722605,316.37130658771923 L-23.292960447153348,290.64355130616497 M-23.263250943589924,599.3423107730598 L-23.292960447153348,290.64355130616497 M-23.292960447153348,290.64355130616497 L154.95910934919812,187.7468245685255 M154.95910934919812,187.7468245685255 L154.95910934919812,496.4284350567952 M199.52088873034546,264.91722558260824 L188.4875181486998,259.8377611504316 M188.4875181486998,259.8377611504316 L175.77305992282987,256.30301554015654 M175.77305992282987,256.30301554015654 L162.01501539859197,254.49020337768405 M162.01501539859197,254.49020337768405 L147.9032032998042,254.49020337768405 M147.9032032998042,254.49020337768405 L134.1451587755663,256.30301554015654 M134.1451587755663,256.30301554015654 L121.43070054969638,259.8377611504316 M121.43070054969638,259.8377611504316 L110.39732996805071,264.91722558260824 M199.52088873034546,264.91722558260824 L199.51346176711525,573.6116978049163 M154.95910934919812,187.7468245685255 L377.78038727832393,316.37130658771923 M377.78038727832393,316.37130658771923 L383.2979106117592,318.9113405538219 M383.2979106117592,318.9113405538219 L389.65595476302906,320.67894829887103 M389.65595476302906,320.67894829887103 L396.5356762299259,321.58547886253984 M396.5356762299259,321.58547886253984 L403.5921104893599,321.5854874887789 M403.5921104893599,321.5854874887789 L410.4713474144439,320.67894504007603 M410.4713474144439,320.67894504007603 L416.828461285358,318.91134196755854 M416.828461285358,318.91134196755854 L422.344642864149,316.37130658771923 M778.7200432000387,110.58928528794519 L422.344642864149,316.37130658771923 M778.7200432000387,110.58928528794519 L823.2929604471533,136.30703616512744 M400.0795411070054,380.69694988986186 L823.2929604471533,136.30703616512744 M400.0795411070054,380.69694988986186 L199.52088873034546,264.91722558260824 M377.78038727832393,316.37130658771923 L377.74324833539447,625.0743532991216 M400.03868259439844,689.4107147120549 L400.0795411070054,380.69694988986186 M823.181586940513,444.9800721640052 L823.2929604471533,136.30703616512744 M422.344642864149,316.37130658771923 L422.30007613263365,625.0743532991216 M778.6161003682024,419.25803404217663 L778.7200432000387,110.58928528794519" stroke="black"  stroke-width="4"  fill="red"/></svg>