<svg viewBox="0 0 800 800" xmlns="http://www.w3.org/2000/svg"><path d="M171.4870122594869,519.5782013737651 L99.4283371064127,561.1905417463711 M243.53968268976297,519.5782013737653 L234.6196639754512,515.4702977656514 M234.6196639754512,515.4702977656514 L224.34055617439344,512.6116510593677 M224.34055617439344,512.6116510593677 L213.21775247346574,511.145579637626 M213.21775247346574,511.145579637626 L201.80894247578414,511.145579637626 M201.80894247578414,511.145579637626 L190.6861387748565,512.6116510593677 M190.6861387748565,512.6116510593677 L180.40703097379873,515.4702977656514 M180.40703097379873,515.4702977656514 L171.4870122594869,519.5782013737651 M441.7203079919899,634.0232646199811 L243.53968268976297,519.5782013737653 M783.8706712141952,436.3673898676512 L441.7203079919899,634.0232646199811 M747.8333312595028,415.5675758541801 L783.8706712141952,436.3673898676512 M459.718711094226,581.9984459246887 L747.8333312595028,415.5675758541801 M423.68937343428297,581.9984459246887 L428.15028294621516,584.0527558547171 M428.15028294621516,584.0527558547171 L433.29070723164716,585.4823486039334 M433.29070723164716,585.4823486039334 L438.8528640487251,586.2155257038153 M438.8528640487251,586.2155257038153 L444.55785449639006,586.2155326804809 M444.55785449639006,586.2155326804809 L450.11954909185863,585.4823459683091 M450.11954909185863,585.4823459683091 L455.25908384065553,584.0527569981084 M455.25908384065553,584.0527569981084 L459.718711094226,581.9984459246887 M207.51334747462494,457.16835933005774 L423.68937343428297,581.9984459246887 M63.40400357674241,540.3837935948416 L207.51334747462494,457.16835933005774 M99.4283371064127,561.1905417463711 L63.40400357674241,540.3837935948416 M99.41031893397968,311.575434821666 L171.48100686938608,269.97002772048364 M171.48100686938608,269.97002772048364 L171.48211001315354,315.82112089737285 M171.48290678724305,348.93825766067727 L168.64893860687005,346.475728253404 M168.64893860687005,346.475728253404 L166.67657941288962,342.8899392844 M166.67657941288962,342.8899392844 L165.66491761024008,338.36095787932123 M165.66491761024008,338.36095787932123 L165.6647710520212,333.11625088346193 M165.6647710520212,333.11625088346193 L166.6761575485089,327.41922371904093 M166.6761575485089,327.41922371904093 L168.64829190037977,321.55601618224557 M168.64829190037977,321.55601618224557 L171.48211001315354,315.82112089737285 M171.48290678724305,348.93825766067727 L171.48511277458726,440.6279668810459 M171.48590941588105,473.7395841215653 L168.65217742269215,471.27787413324216 M168.65217742269215,471.27787413324216 L166.67998261372816,467.69296743915544 M166.67998261372816,467.69296743915544 L165.66840513424427,463.1648868545761 M165.66840513424427,463.1648868545761 L165.66825860045185,457.92105398046834 M165.66825860045185,457.92105398046834 L166.67956081965843,452.22483033593977 M166.67956081965843,452.22483033593977 L168.6515308239865,446.36231535649557 M168.6515308239865,446.36231535649557 L171.48511277458726,440.6279668810459 M171.48590941588105,473.7395841215653 L171.4870122594869,519.5782013737651 M99.4283371064127,561.1905417463711 L99.41031893397968,311.575434821666 M243.54568807986385,269.97002772048364 L243.53968268976297,519.5782013737653 M243.54568807986385,269.97002772048364 L234.62418242316033,265.86280859561595 M234.62418242316033,265.86280859561595 L224.34336115058238,263.00463821842067 M224.34336115058238,263.00463821842067 L213.21870335540666,261.5388110858722 M213.21870335540666,261.5388110858722 L201.8079915938432,261.5388110858722 M201.8079915938432,261.5388110858722 L190.68333379866755,263.00463821842067 M190.68333379866755,263.00463821842067 L180.4025125260896,265.86280859561595 M180.4025125260896,265.86280859561595 L171.48100686938608,269.97002772048364 M171.93316827586966,315.06262599291455 L171.48211001315354,315.82112089737285 M171.93316827586966,315.06262599291455 L179.81106157625845,303.41150489145065 M179.81106157625845,303.41150489145065 L188.7733419570717,293.0606503980092 M188.7733419570717,293.0606503980092 L199.45342433117344,299.0718750019093 M199.45342433117344,299.0718750019093 L206.3547717426594,302.9706327419486 M206.3547717426594,302.9706327419486 L213.27751246659977,306.89220620439863 M213.27751246659977,306.89220620439863 L223.655985651715,314.33398416763197 M223.655985651715,314.33398416763197 L228.0326952489433,318.9608222496614 M228.0326952489433,318.9608222496614 L230.57858329422305,322.68796957264095 M230.57858329422305,322.68796957264095 L231.45441110146953,324.57999396521353 M231.45441110146953,324.57999396521353 L231.97345844139414,326.66979108278844 M231.97345844139414,326.66979108278844 L231.9229565206491,328.4143060636463 M231.9229565206491,328.4143060636463 L231.38109509556142,329.99247846468245 M231.38109509556142,329.99247846468245 L229.70882738035743,332.1553971909524 M229.70882738035743,332.1553971909524 L224.0203728386159,336.0268027921218 M224.0203728386159,336.0268027921218 L213.25245654205258,341.0220640378487 M213.25245654205258,341.0220640378487 L203.59290734834258,344.7498318721166 M203.59290734834258,344.7498318721166 L195.6721634137961,347.37703064969674 M195.6721634137961,347.37703064969674 L188.60898289346034,349.264820908845 M188.60898289346034,349.264820908845 L182.8337991762885,350.29549444396577 M182.8337991762885,350.29549444396577 L177.80915110669804,350.5378681453566 M177.80915110669804,350.5378681453566 L174.36462481080895,350.0720199976859 M174.36462481080895,350.0720199976859 L171.48290678724305,348.93825766067727 M171.93613344710712,439.86953409588097 L171.48511277458726,440.6279668810459 M171.93613344710712,439.86953409588097 L179.8133702229431,428.2194468586658 M179.8133702229431,428.2194468586658 L188.77490370979586,417.8696536282006 M188.77490370979586,417.8696536282006 L199.45409602326538,423.87945103006336 M199.45409602326538,423.87945103006336 L206.354868294891,427.7774682897668 M206.354868294891,427.7774682897668 L213.27703209943627,431.69843346197746 M213.27703209943627,431.69843346197746 L223.65464037874017,439.1393027336418 M223.65464037874017,439.1393027336418 L228.0309852377061,443.76561353417804 M228.0309852377061,443.76561353417804 L230.57666111961538,447.4923136038562 M230.57666111961538,447.4923136038562 L231.4524159398822,449.3840933373935 M231.4524159398822,449.3840933373935 L231.9714200265451,451.47357763395524 M231.9714200265451,451.47357763395524 L231.920922316877,453.2177978825127 M231.920922316877,453.2177978825127 L231.3791060512213,454.7956651901189 M231.3791060512213,454.7956651901189 L229.7069777007245,456.958101110532 M229.7069777007245,456.958101110532 L224.01899721857126,460.8285237195208 M224.01899721857126,460.8285237195208 L213.25197827387046,465.82260264131327 M213.25197827387046,465.82260264131327 L203.59323405701292,469.54972172009246 M203.59323405701292,469.54972172009246 L195.67315019495032,472.17666713545333 M195.67315019495032,472.17666713545333 L188.6105582844296,474.0644588615848 M188.6105582844296,474.0644588615848 L182.8358515512748,475.0953658537581 M182.8358515512748,475.0953658537581 L177.8116265140547,475.338147939954 M177.8116265140547,475.338147939954 L174.36738727831357,474.8727724854718 M174.36738727831357,474.8727724854718 L171.48590941588105,473.7395841215653 M243.54568807986385,269.97002772048364 L441.75935495874614,384.3960244711354 M441.75935495874614,384.3960244711354 L441.7203079919899,634.0232646199811 M783.9667361050903,186.77308275766583 L441.75935495874614,384.3960244711354 M783.8706712141952,436.3673898676512 L783.9667361050903,186.77308275766583 M617.3541792416852,407.78679238441487 L617.1333844463824,409.521020955833 M617.1333844463824,409.521020955833 L616.4934777062253,411.34004826916185 M616.4934777062253,411.34004826916185 L615.4971089049491,413.065811205095 M615.4971089049491,413.065811205095 L614.2418012216228,414.52938629771637 M614.2418012216228,414.52938629771637 L612.8504338376515,415.58750824855593 M612.8504338376515,415.58750824855593 L611.4592012496644,416.1366014217501 M611.4592012496644,416.1366014217501 L610.2042856082585,416.1229151179708 M610.2042856082585,416.1229151179708 L609.2085299403886,415.5477852110033 M609.2085299403886,415.5477852110033 L608.5694001530328,414.46751123881137 M608.5694001530328,414.46751123881137 L608.3494722981379,412.9878294610275 M608.3494722981379,412.9878294610275 L608.5702608932596,411.2535904098004 M608.5702608932596,411.2535904098004 L609.2101697754138,409.4345462725792 M609.2101697754138,409.4345462725792 L610.2065482425326,407.70876659488573 M610.2065482425326,407.70876659488573 L611.4618694236206,406.2451812373945 M611.4618694236206,406.2451812373945 L612.853248981548,405.1870594194169 M612.853248981548,405.1870594194169 L614.2444877696549,404.63797672606165 M614.2444877696549,404.63797672606165 L615.4994012691072,404.6516798537238 M615.4994012691072,404.6516798537238 L616.4951472711173,405.2268265024413 M616.4951472711173,405.2268265024413 L617.1342635606917,406.30711073952676 M617.1342635606917,406.30711073952676 L617.3541792416852,407.78679238441487 M747.9233870916845,165.97673538001885 L783.9667361050903,186.77308275766583 M747.8333312595028,415.5675758541801 L747.9233870916845,165.97673538001885 M747.9233870916845,165.97673538001885 L459.7607558326806,332.3798723643845 M459.7607558326806,332.3798723643845 L459.718711094226,581.9984459246887 M581.3138316169839,386.983366496901 L581.0938772467953,385.5037000985179 M581.0938772467953,385.5037000985179 L580.4547260477394,384.4234154725906 M580.4547260477394,384.4234154725906 L579.4589523331996,383.848252838018 M579.4589523331996,383.848252838018 L578.204021030945,383.83451969193646 M578.204021030945,383.83451969193646 L576.8127760924917,384.3835612727017 M576.8127760924917,384.3835612727017 L575.4214026387259,385.4416349082541 M575.4214026387259,385.4416349082541 L574.1660992187765,386.90516972993504 M574.1660992187765,386.90516972993504 L573.1697484311233,388.63090146543084 M573.1697484311233,388.63090146543084 L572.5298744372222,390.4499049468942 M572.5298744372222,390.4499049468942 L572.3091245239813,392.1841146089493 M572.3091245239813,392.1841146089493 L572.5290910679056,393.66378114051554 M572.5290910679056,393.66378114051554 L573.1682557643087,394.74405550230205 M573.1682557643087,394.74405550230205 L574.1640391441713,395.3192013960548 M574.1640391441713,395.3192013960548 L575.4189725879451,395.3329177190058 M575.4189725879451,395.3329177190058 L576.810211326112,394.783865658689 M576.810211326112,394.783865658689 L578.2015726060874,393.7257918899872 M578.2015726060874,393.7257918899872 L579.4568625287087,392.26226733242356 M579.4568625287087,392.26226733242356 L580.4532036510567,390.5365523377579 M580.4532036510567,390.5365523377579 L581.0930755033954,388.7175656794344 M581.0930755033954,388.7175656794344 L581.3138316169839,386.983366496901 M423.7254117815297,332.3798723643845 L428.18706506519266,334.43384005300254 M428.18706506519266,334.43384005300254 L433.32834637644237,335.8631946377848 M433.32834637644237,335.8631946377848 L438.89143049354004,336.59624959364726 M438.89143049354004,336.59624959364726 L444.59737201606947,336.5962565691509 M444.59737201606947,336.5962565691509 L450.15999375805836,335.8631920025997 M450.15999375805836,335.8631920025997 L455.3003852353279,334.43384119620356 M455.3003852353279,334.43384119620356 L459.7607558326806,332.3798723643845 M423.7254117815297,332.3798723643845 L423.68937343428297,581.9984459246887 M207.51334747462494,207.5705855842324 L423.7254117815297,332.3798723643845 M207.51334747462494,207.5705855842324 L207.51334747462494,457.16835933005774 M63.37998068164097,290.77215330581623 L207.51334747462494,207.5705855842324 M63.40400357674241,540.3837935948416 L63.37998068164097,290.77215330581623 M138.51634171505862,309.809949366382 L138.84367522554038,312.73247414666076 M138.84367522554038,312.73247414666076 L139.8063662531202,315.1073576821071 M139.8063662531202,315.1073576821071 L141.34845952371762,316.7965865757459 M141.34845952371762,316.7965865757459 L143.3803265603928,317.70200031318234 M143.3803265603928,317.70200031318234 L145.78388631261816,317.77097586645044 M145.78388631261816,317.77097586645044 L148.4194402176679,316.99952298889656 M148.4194402176679,316.99952298889656 L151.13383364905684,315.4324708011416 M151.13383364905684,315.4324708011416 L153.76930797793364,313.1608998875251 M153.76930797793364,313.1608998875251 L156.17271691959849,310.3168202613748 M156.17271691959849,310.3168202613748 L158.20437725818863,307.0655169027124 M158.20437725818863,307.0655169027124 L159.74622789622367,303.59593970211546 M159.74622789622367,303.59593970211546 L160.7086619362317,300.10971775362003 M160.7086619362317,300.10971775362003 L161.03574434340499,296.8094497073271 M161.03574434340499,296.8094497073271 L160.70846745715494,293.88693176263376 M160.70846745715494,293.88693176263376 L159.74584247398258,291.5120147125401 M159.74584247398258,291.5120147125401 L158.2038095379731,289.8227196318857 M158.2038095379731,289.8227196318857 L156.17198330416096,288.9172221976716 M156.17198330416096,288.9172221976716 L153.76843547559668,288.8481646117716 M153.76843547559668,288.8481646117716 L151.13286188348968,289.61955591360186 M151.13286188348968,289.61955591360186 L148.41842166428586,291.1865810887069 M148.41842166428586,291.1865810887069 L145.78288416556637,293.45816574113843 M145.78288416556637,293.45816574113843 L143.37941014316635,296.3022967100191 M143.37941014316635,296.3022967100191 L141.3476977225186,299.55367725348736 M141.3476977225186,299.55367725348736 L139.80581993218084,303.0233397986831 M139.80581993218084,303.0233397986831 L138.8433898900136,306.5096357002761 M138.8433898900136,306.5096357002761 L138.51634171505862,309.809949366382 M138.52209153182133,434.61215489440445 L138.8493977508645,437.53414538253884 M138.8493977508645,437.53414538253884 L139.81200853822702,439.9084942020179 M139.81200853822702,439.9084942020179 L141.3539732841661,441.5972190313777 M141.3539732841661,441.5972190313777 L143.38567098219283,442.5021886493472 M143.38567098219283,442.5021886493472 L145.78903042311066,442.5708058380552 M145.78903042311066,442.5708058380552 L148.42436468667762,441.7991011758394 M148.42436468667762,441.7991011758394 L151.1385319098507,440.23191841446373 M151.1385319098507,440.23191841446373 L153.77378661050687,437.9603457261523 M153.77378661050687,437.9603457261523 L156.17699526599824,435.116393225791 M156.17699526599824,435.116393225791 L158.20848630038824,431.86533850695076 M158.20848630038824,431.86533850695076 L159.75020845420215,428.3961170097134 M159.75020845420215,428.3961170097134 L160.71256229682245,424.9103371582439 M160.71256229682245,424.9103371582439 L161.0396174544062,421.6105719116834 M161.0396174544062,421.6105719116834 L160.7123678501573,418.68858824925445 M160.7123678501573,418.68858824925445 L159.7498230961951,416.31420591397546 M159.7498230961951,416.31420591397546 L158.20791867478846,414.6254149054385 M158.20791867478846,414.6254149054385 L156.1762617728246,413.72036160572526 M156.1762617728246,413.72036160572526 L153.77291425358084,413.651662403171 M153.77291425358084,413.651662403171 L151.13756030623802,414.42330550789643 M151.13756030623802,414.42330550789643 L148.4233463030481,415.9904612701263 M148.4233463030481,415.9904612701263 L145.78802844307745,418.262047702934 M145.78802844307745,418.262047702934 L143.38475471769743,421.10605154258275 M143.38475471769743,421.10605154258275 L141.35321160992987,424.35718343445035 M141.35321160992987,424.35718343445035 L139.81146230833832,427.82649025887076 M139.81146230833832,427.82649025887076 L138.84911246289226,431.3123440443745 M138.84911246289226,431.3123440443745 L138.52209153182133,434.61215489440445 M99.41031893397968,311.575434821666 L63.37998068164097,290.77215330581623 M160.13735309631124,447.0940997841653 L160.46461441364232,450.01610989428383 M160.46461441364232,450.01610989428383 L161.42718290998897,452.3904646009775 M161.42718290998897,452.3904646009775 L162.9691104332848,454.0791812408418 M162.9691104332848,454.0791812408418 L165.0007781400996,454.9841290688482 M165.0007781400996,454.9841290688482 L167.40411656418132,455.0527121335144 M167.40411656418132,455.0527121335144 L170.03944000653155,454.2809629967924 M170.03944000653155,454.2809629967924 L172.75360723297786,452.7137279949847 M172.75360723297786,452.7137279949847 L175.38887276120704,450.44209833656936 M175.38887276120704,450.44209833656936 L177.79210243933113,447.5980874470043 M177.79210243933113,447.5980874470043 L179.8236234698333,444.34697631321814 M179.8236234698333,444.34697631321814 L181.36538285000944,440.8777036536128 M181.36538285000944,440.8777036536128 L182.3277789859672,437.39188086552053 M182.3277789859672,437.39188086552053 L182.65487904605237,434.09208340325875 M182.65487904605237,434.09208340325875 L182.32767434388893,431.17008011819917 M182.32767434388893,431.17008011819917 L181.36517188197666,428.79569189391424 M181.36517188197666,428.79569189391424 L179.82330468467126,427.1069090723476 M179.82330468467126,427.1069090723476 L177.79167777546712,426.2018775599165 M177.79167777546712,426.2018775599165 L175.3883512743426,426.1332124791815 M175.3883512743426,426.1332124791815 L172.75300814894098,426.9049000571584 M172.75300814894098,426.9049000571584 L170.03879414247763,428.47210805982064 M170.03879414247763,428.47210805982064 L167.40346545420925,430.7437514639878 M167.40346545420925,430.7437514639878 L165.00017070491322,433.5878136950631 M165.00017070491322,433.5878136950631 L162.96859759948563,436.83900200455764 M162.96859759948563,436.83900200455764 L161.426811070074,440.30835999387097 M161.426811070074,440.30835999387097 L160.46441893025667,443.7942567177881 M160.46441893025667,443.7942567177881 L160.13735309631124,447.0940997841653 M182.65487904605237,434.09208340325875 L194.36353701013206,435.652301283639 M194.36353701013206,435.652301283639 L206.07224376101072,437.21252566502375 M206.07224376101072,437.21252566502375 L205.65119829726808,432.71070913544736 M205.65119829726808,432.71070913544736 L204.40552275719438,428.88219416488516 M204.40552275719438,428.88219416488516 L202.3869756147759,425.88607339090436 M202.3869756147759,425.88607339090436 L199.67943668839052,423.84685169799167 M171.93334613332945,439.8679245643597 L175.41197447128428,434.829524003152 M175.41197447128428,434.829524003152 L179.3711217253146,430.44226566251047 M179.3711217253146,430.44226566251047 L183.6277671385667,426.90896966024076 M183.6277671385667,426.90896966024076 L187.98512522218437,424.3929765446188 M187.98512522218437,424.3929765446188 L192.2417452715879,423.0105958024671 M192.2417452715879,423.0105958024671 L196.20085069138696,422.8257156602236 M196.20085069138696,422.8257156602236 L199.67943668839052,423.84685169799167 M171.93334613332945,439.8679245643597 L171.78245319107248,440.1203522977064 M171.78245319107248,440.1203522977064 L171.63303777623827,440.37370717617364 M171.63303777623827,440.37370717617364 L171.48511277458726,440.6279668810459 M171.48590941588105,473.7395841215653 L175.22800662300335,474.980539221784 M175.22800662300335,474.980539221784 L179.55433801104198,474.7818400242192 M179.55433801104198,474.7818400242192 L184.22595018766555,473.1544801797864 M184.22595018766555,473.1544801797864 L188.9848362806964,470.188345351102 M188.9848362806964,470.188345351102 L193.56817160066407,466.0472854648884 M193.56817160066407,466.0472854648884 L197.7228308349683,460.95998449778534 M197.7228308349683,460.95998449778534 L201.21936298361624,455.2074266038231 M201.21936298361624,455.2074266038231 L203.86466059921958,449.10730054014397 M203.86466059921958,449.10730054014397 L205.51263291587685,442.9964994624663 M205.51263291587685,442.9964994624663 L206.07224376101072,437.21252566502375 M160.13340465641892,322.29085426538785 L160.46069325770418,325.2133986806147 M160.46069325770418,325.2133986806147 L161.42334198721915,327.5882881154861 M161.42334198721915,327.5882881154861 L162.9653980289691,329.27750883037646 M162.9653980289691,329.27750883037646 L164.9972350694336,330.1829007865089 M164.9972350694336,330.1829007865089 L167.40077380132004,330.2518422218034 M167.40077380132004,330.2518422218034 L170.03631688334957,329.48034487286753 M170.03631688334957,329.48034487286753 L172.75071031801258,327.91324044467973 M172.75071031801258,327.91324044467973 L175.3861954762674,325.6416125578331 M175.3861954762674,325.6416125578331 L177.78962544406932,322.7974745364096 M177.78962544406932,322.7974745364096 L179.82131578377152,319.54611475414106 M179.82131578377152,319.54611475414106 L181.36320365437393,316.0764863804285 M181.36320365437393,316.0764863804285 L182.32567999476908,312.5902214830998 M182.32567999476908,312.5902214830998 L182.65280731192826,309.28992120814155 M182.65280731192826,309.28992120814155 L182.32557533524812,306.3673836278535 M182.32557533524812,306.3673836278535 L181.36299265117503,303.9924606765436 M181.36299265117503,303.9924606765436 L179.82099694547134,302.3031737721118 M179.82099694547134,302.3031737721118 L177.78920070941808,301.39769811651996 M177.78920070941808,301.39769811651996 L175.38567390247624,301.32867464637053 M175.38567390247624,301.32867464637053 L172.75011113411404,302.10011041832723 M172.75011113411404,302.10011041832723 L170.03567091163603,303.66718783386517 M170.03567091163603,303.66718783386517 L167.4001225828136,305.93882946078196 M167.4001225828136,305.93882946078196 L164.99662753299287,308.783018827159 M164.99662753299287,308.783018827159 L162.9648851096847,312.0344557969151 M162.9648851096847,312.0344557969151 L161.42297008532142,315.50416951775213 M161.42297008532142,315.50416951775213 L160.46049774173298,318.99050836996986 M160.46049774173298,318.99050836996986 L160.13340465641892,322.29085426538785 M182.65280731192826,309.28992120814155 L194.36244108711077,310.85000908970295 M194.36244108711077,310.85000908970295 L206.07212365722438,312.4101034722688 M206.07212365722438,312.4101034722688 L205.651043102367,307.90747575057765 M205.651043102367,307.90747575057765 L204.4052637443915,304.0781427713395 M204.4052637443915,304.0781427713395 L202.38654837005595,301.08123116379505 M202.38654837005595,301.08123116379505 L199.67878378763504,299.0412786763425 M171.93038072979067,315.06101659550376 L175.40929899464612,310.0222783554276 M175.40929899464612,310.0222783554276 L179.36877622625036,305.63486520704566 M179.36877622625036,305.63486520704566 L183.62577641244962,302.10159225646566 M183.62577641244962,302.10159225646566 L187.9834976623389,299.58580879068364 M187.9834976623389,299.58580879068364 L192.24047248053336,298.20381460169034 M192.24047248053336,298.20381460169034 L196.19990787078893,298.0194702374844 M196.19990787078893,298.0194702374844 L199.67878378763504,299.0412786763425 M171.93038072979067,315.06101659550376 L171.77947521139316,315.31346462334875 M171.77947521139316,315.31346462334875 L171.63004734356934,315.5668401641638 M171.63004734356934,315.5668401641638 L171.48211001315354,315.82112089737285 M171.48290678724305,348.93825766067727 L175.22531588521298,350.17995982335924 M175.22531588521298,350.17995982335924 L179.55200785139806,349.9818495740316 M179.55200785139806,349.9818495740316 L184.224009377843,348.35489038230185 M184.224009377843,348.35489038230185 L188.98329208976702,345.3889555679583 M188.98329208976702,345.3889555679583 L193.56700939391482,341.24785963104034 M193.56700939391482,341.24785963104034 L197.72201488340602,336.1603154025358 M197.72201488340602,336.1603154025358 L201.21883843668724,330.407303389949 M201.21883843668724,330.407303389949 L203.86435651371715,324.306542385906 M203.86435651371715,324.306542385906 L205.51246617380338,318.1949606105581 M205.51246617380338,318.1949606105581 L206.07212365722438,312.4101034722688 M171.93038072979067,315.06101659550376 L171.93316827586966,315.06262599291455 M185.80450303352592,291.34665568575986 L171.93038072979067,315.06101659550376 M185.80450303352592,291.34665568575986 L188.7733419570717,293.0606503980092 M199.67878378763504,299.0412786763425 L185.80450303352592,291.34665568575986 M199.67878378763504,299.0412786763425 L213.27751246659977,306.89220620439863 M171.93334613332945,439.8679245643597 L171.93613344710712,439.86953409588097 M185.8063121989132,416.15551607620955 L171.93334613332945,439.8679245643597 M185.8063121989132,416.15551607620955 L188.77490370979586,417.8696536282006 M199.67943668839052,423.84685169799167 L185.8063121989132,416.15551607620955 M199.67943668839052,423.84685169799167 L213.27703209943627,431.69843346197746 M581.3138316169839,386.983366496901 L617.3541792416852,407.78679238441487 M160.13340465641892,322.29085426538785 L138.51634171505862,309.809949366382 M160.13735309631124,447.0940997841653 L138.52209153182133,434.61215489440445" stroke="black"  stroke-width="4"  fill="red"/>
<path d="M675.9077490938214,415.58837509107883 L675.1204610616461,423.5087460446565 M675.1204610616461,423.5087460446565 L672.8090621727496,431.8755621312471 M672.8090621727496,431.8755621312471 L669.1078646972826,440.20262091153234 M669.1078646972826,440.20262091153234 L664.2319548418653,448.0060293016954 M664.2319548418653,448.0060293016954 L658.4646700386367,454.8323192825355 M658.4646700386367,454.8323192825355 L652.1411824347527,460.28478238572046 M652.1411824347527,460.28478238572046 L645.6289256213164,464.04656748687006 M645.6289256213164,464.04656748687006 L639.3063653500361,465.8990284151517 M639.3063653500361,465.8990284151517 L633.5409365795705,465.73447618795893 M633.5409365795705,465.73447618795893 L628.6676995710262,463.5624371079561 M628.6676995710262,463.5624371079561 L624.9698907425898,459.50910449365944 M624.9698907425898,459.50910449365944 L622.6624505368051,453.81000339944154 M622.6624505368051,453.81000339944154 L621.879508389963,446.7963314958177 M621.879508389963,446.7963314958177 L622.6665908410387,438.8757027599487 M622.6665908410387,438.8757027599487 L624.9779754424139,430.50845574404633 M624.9779754424139,430.50845574404633 L628.679337990246,422.1809003921591 M628.679337990246,422.1809003921591 L633.5555478411777,414.3770473706418 M633.5555478411777,414.3770473706418 L639.3231902504309,407.5504715191 M639.3231902504309,407.5504715191 L645.6470501501119,402.097924265986 M645.6470501501119,402.097924265986 L652.1595762785701,398.33629471877674 M652.1595762785701,398.33629471877674 L658.4822411865065,396.4841934123303 M658.4822411865065,396.4841934123303 L664.2476183276366,396.6492082396148 M664.2476183276366,396.6492082396148 L669.1206202651724,398.82172945078327 M669.1206202651724,398.82172945078327 L672.8180730205598,402.8754483164002 M672.8180730205598,402.8754483164002 L675.1251243437407,408.5747474724832 M675.1251243437407,408.5747474724832 L675.9077490938214,415.58837509107883 M675.9077490938214,415.58837509107883 L671.392680672756,397.38493495988087 M671.392680672756,397.38493495988087 L666.8778317479016,379.18237977344273 M666.8778317479016,379.18237977344273 L665.312565781326,365.15531098258856 M665.312565781326,365.15531098258856 L660.6984874671596,353.7565766667902 M660.6984874671596,353.7565766667902 L653.3036140126263,345.6487021162738 M653.3036140126263,345.6487021162738 L643.5576048232317,341.3030032732091 M643.5576048232317,341.3030032732091 L632.0267851465509,340.9722082448388 M632.0267851465509,340.9722082448388 L619.3812294188523,344.6757152072312 M619.3812294188523,344.6757152072312 L606.3559247694498,352.1983907938863 M606.3559247694498,352.1983907938863 L593.7079276943914,363.10310859874363 M593.7079276943914,363.10310859874363 L582.1724276077508,376.7560938099681 M582.1724276077508,376.7560938099681 L572.4199479162972,392.3637930445618 M572.4199479162972,392.3637930445618 L565.0173643022828,409.0189859560137 M565.0173643022828,409.0189859560137 L560.3949565832838,425.7535623771578 M560.3949565832838,425.7535623771578 L558.8213482389987,441.59482480042055 M558.8213482389987,441.59482480042055 L560.3879181273588,455.6220509156405 M560.3879181273588,455.6220509156405 L565.0035175832575,467.02001289336107 M565.0035175832575,467.02001289336107 L572.3997809243738,475.12636237618966 M572.3997809243738,475.12636237618966 L582.1467303379652,479.4701327976564 M582.1467303379652,479.4701327976564 L593.677833770538,479.7990328691123 M593.677833770538,479.7990328691123 L606.3229279853188,476.09411226830565 M606.3229279853188,476.09411226830565 L619.3471553759948,468.5708144666932 M619.3471553759948,468.5708144666932 L631.9937062319602,457.6664084113917 M631.9937062319602,457.6664084113917 L643.5276986577289,444.0146112405742 M643.5276986577289,444.0146112405742 L653.2789784267155,428.4086904282013 M653.2789784267155,428.4086904282013 L660.6809361559763,411.7554638650297 M660.6809361559763,411.7554638650297 L665.3034354134934,395.0225912515728 M665.3034354134934,395.0225912515728 L666.8778317479016,379.18237977344273 M653.3965293651869,428.59137416631165 L653.175695884212,430.32563212720356 M653.175695884212,430.32563212720356 L652.5357542533474,432.1447000972478 M652.5357542533474,432.1447000972478 L651.5393577716043,433.8705109771122 M651.5393577716043,433.8705109771122 L650.2840323275378,435.3341366081479 M650.2840323275378,435.3341366081479 L648.8926588410399,436.3923067448462 M648.8926588410399,436.3923067448462 L647.5014324060634,436.9414410346392 M647.5014324060634,436.9414410346392 L646.2465345709408,436.92778475338883 M646.2465345709408,436.92778475338883 L645.2508066196802,436.35267083587087 M645.2508066196802,436.35267083587087 L644.6117117462378,435.27239725498424 M644.6117117462378,435.27239725498424 L644.3918225850111,433.79270023157267 M644.3918225850111,433.79270023157267 L644.6126498659715,432.0584317905844 M644.6126498659715,432.0584317905844 L645.2525936392682,430.23934699589535 M645.2525936392682,430.23934699589535 L646.2489997873905,428.51351937334044 M646.2489997873905,428.51351937334044 L647.5043387296533,427.04988347668217 M647.5043387296533,427.04988347668217 L648.895724390273,425.9917134725582 M648.895724390273,425.9917134725582 L650.2869570252024,425.44258966289163 M650.2869570252024,425.44258966289163 L651.5418527179369,425.4562627687773 M651.5418527179369,425.4562627687773 L652.5375710028001,426.0313934289755 M652.5375710028001,426.0313934289755 L653.1766523780271,427.1116772755082 M653.1766523780271,427.1116772755082 L653.3965293651869,428.59137416631165 M617.3541792416852,407.78679238441487 L617.1342635606917,406.30711073952676 M617.1342635606917,406.30711073952676 L616.4951472711173,405.2268265024413 M616.4951472711173,405.2268265024413 L615.4994012691072,404.6516798537238 M615.4994012691072,404.6516798537238 L614.2444877696549,404.63797672606165 M614.2444877696549,404.63797672606165 L612.853248981548,405.1870594194169 M612.853248981548,405.1870594194169 L611.4618694236206,406.2451812373945 M611.4618694236206,406.2451812373945 L610.2065482425326,407.70876659488573 M610.2065482425326,407.70876659488573 L609.2101697754138,409.4345462725792 M609.2101697754138,409.4345462725792 L608.5702608932596,411.2535904098004 M608.5702608932596,411.2535904098004 L608.3494722981379,412.9878294610276 M608.3494722981379,412.9878294610276 L608.5694001530328,414.46751123881137 M608.5694001530328,414.46751123881137 L609.2085299403886,415.5477852110033 M609.2085299403886,415.5477852110033 L610.2042856082585,416.1229151179708 M610.2042856082585,416.1229151179708 L611.4592012496644,416.1366014217501 M611.4592012496644,416.1366014217501 L612.8504338376515,415.58750824855593 M612.8504338376515,415.58750824855593 L614.2418012216228,414.52938629771637 M614.2418012216228,414.52938629771637 L615.4971089049491,413.065811205095 M615.4971089049491,413.065811205095 L616.4934777062253,411.34004826916185 M616.4934777062253,411.34004826916185 L617.1333844463824,409.521020955833 M617.1333844463824,409.521020955833 L617.3541792416852,407.78679238441487 M617.3541792416852,407.78679238441487 L653.3965293651869,428.59137416631165" stroke="black"  stroke-width="4"  fill="red"/>
<path d="M545.2754863242003,366.1810964074413 L689.4408821543896,449.3971119389309 M536.2707790956563,371.38155557900626 L680.4361755515046,454.59872701692706 M545.2754863242003,366.1810964074413 L545.0547688883687,367.9152662016788 M545.0547688883687,367.9152662016788 L544.4149319209592,369.734212206707 M544.4149319209592,369.734212206707 L543.4186184760023,371.4598792627688 M543.4186184760023,371.4598792627688 L542.1633463140492,372.92335328863095 M542.1633463140492,372.92335328863095 L540.7719911395393,373.98137887891596 M540.7719911395393,373.98137887891596 L539.3807462540227,374.53038983007593 M539.3807462540227,374.53038983007593 L538.1257950117962,374.51664349130965 M538.1257950117962,374.51664349130965 L537.1299839245569,373.9414816134359 M537.1299839245569,373.9414816134359 L536.4907843239719,372.8612068637655 M536.4907843239719,372.8612068637655 L536.2707790956563,371.38155557900626 M689.4408821543896,449.3971119389309 L689.2200099837839,451.1313992898857 M689.2200099837839,451.1313992898857 L688.5800334593222,452.9505079183553 M688.5800334593222,452.9505079183553 L687.5836092955749,454.67636674481497 M687.5836092955749,454.67636674481497 L686.328266090732,456.1400429176221 M686.328266090732,456.1400429176221 L684.9368865031767,457.19826124390073 M684.9368865031767,457.19826124390073 L683.5456662240429,457.74743665401405 M683.5456662240429,457.74743665401405 L682.2907861991191,457.73381039865006 M682.2907861991191,457.73381039865006 L681.2950859690854,457.15871247324645 M681.2950859690854,457.15871247324645 L680.6560260144229,456.0784392853763 M680.6560260144229,456.0784392853763 L680.4361755515046,454.59872701692706 M536.2707790956563,371.38155557900626 L536.491490330974,369.64737530553435 M536.491490330974,369.64737530553435 L537.1313294395111,367.82841247811876 M537.1313294395111,367.82841247811876 L538.1276525492366,366.10272868215696 M538.1276525492366,366.10272868215696 L539.3829382080833,364.63924439292987 M539.3829382080833,364.63924439292987 L540.7743055562183,363.5812189360819 M540.7743055562183,363.5812189360819 L542.1655566421872,363.03221846418603 M542.1655566421872,363.03221846418603 L543.4205057433295,363.0459816253303 M543.4205057433295,363.0459816253303 L544.4163071657829,363.621160243094 M544.4163071657829,363.621160243094 L545.0554932694549,364.7014452561527 M545.0554932694549,364.7014452561527 L545.2754863242003,366.1810964074413 M680.4361755515046,454.59872701692706 L680.6570415222617,452.86442918558856 M680.6570415222617,452.86442918558856 L681.2970201895904,451.0453037317215 M681.2970201895904,451.0453037317215 L682.2934540202542,449.31942816164104 M682.2934540202542,449.31942816164104 L683.5488107237278,447.8557417224585 M683.5488107237278,447.8557417224585 L684.9402024855699,446.7975235284669 M684.9402024855699,446.7975235284669 L686.3314289644906,446.2483585987671 M686.3314289644906,446.2483585987671 L687.586306846591,446.26200167951896 M687.586306846591,446.26200167951896 L688.5819974096904,446.83711634853324 M688.5819974096904,446.83711634853324 L689.2210438657032,447.9173998028022 M689.2210438657032,447.9173998028022 L689.4408821543896,449.3971119389309" stroke="black"  stroke-width="4"  fill="red"/>
<path d="M206.07225664523975,437.2125182252774 L350.19561294294454,520.4339187788485 M199.67943668839052,423.84685169799167 L343.8044348695207,507.06812525744846 M206.07225664523975,437.2125182252774 L205.65119829726808,432.71070913544736 M205.65119829726808,432.71070913544736 L204.40552275719438,428.88219416488516 M204.40552275719438,428.88219416488516 L202.3869756147759,425.88607339090436 M202.3869756147759,425.88607339090436 L199.67943668839052,423.84685169799167 M350.19561294294454,520.4339187788485 L349.7750113211,515.9319001695535 M349.7750113211,515.9319001695535 L348.52977354096856,512.1032924582707 M348.52977354096856,512.1032924582707 L346.5116270004064,509.1071995787318 M346.5116270004064,509.1071995787318 L343.8044348695207,507.06812525744846 M185.8063121989132,416.15551607620955 L329.932821870476,499.37769789534167 M199.67943668839052,423.84685169799167 L185.8063121989132,416.15551607620955 M343.8044348695207,507.06812525744846 L329.932821870476,499.37769789534167 M171.93334613332945,439.8679245643597 L316.05834455388657,523.0927591053328 M185.8063121989132,416.15551607620955 L171.93334613332945,439.8679245643597 M329.932821870476,499.37769789534167 L316.05834455388657,523.0927591053328 M165.5406841395219,460.6166826942594 L309.6640407869733,543.8432851995551 M171.93334613332945,439.8679245643597 L169.2257845004807,445.0340111483195 M169.2257845004807,445.0340111483195 L167.2072485055753,450.3613441686152 M167.2072485055753,450.3613441686152 L165.96162667120882,455.6285314451674 M165.96162667120882,455.6285314451674 L165.5406841395219,460.6166826942594 M316.05834455388657,523.0927591053328 L313.35043617226455,528.2593933113201 M313.35043617226455,528.2593933113201 L311.33149961033746,533.5872165779513 M311.33149961033746,533.5872165779513 L310.085440037524,538.8548163497796 M310.085440037524,538.8548163497796 L309.6640407869733,543.8432851995551 M165.5406841395219,460.6166826942594 L166.12974482634388,465.8763293513154 M166.12974482634388,465.8763293513154 L167.86236147799855,470.1501596790304 M167.86236147799855,470.1501596790304 L170.63783322142962,473.18979214863253 M170.63783322142962,473.18979214863253 L174.29483105306565,474.8186123306778 M174.29483105306565,474.8186123306778 L178.6208218605289,474.94196878685017 M178.6208218605289,474.94196878685017 L183.36438548739318,473.5527157039439 M183.36438548739318,473.5527157039439 L188.24985281657405,470.73161057155 M188.24985281657405,470.73161057155 L192.99330687516056,466.642615741169 M192.99330687516056,466.642615741169 L197.31909695485461,461.5233580783519 M197.31909695485461,461.5233580783519 L200.9758358893909,455.6713424322283 M200.9758358893909,455.6713424322283 L203.7510313349789,449.4266477177602 M203.7510313349789,449.4266477177602 L205.4833988689931,443.15216096926 M205.4833988689931,443.15216096926 L206.07225664523975,437.2125182252774 M309.6640407869733,543.8432851995551 L310.25256248336814,549.1031672999411 M310.25256248336814,549.1031672999411 L311.9846714659817,553.3770682164011 M311.9846714659817,553.3770682164011 L314.7596963642178,556.4166023194412 M314.7596963642178,556.4166023194412 L318.4163341396068,558.0451609032309 M318.4163341396068,558.0451609032309 L322.7420726028388,558.1681077358703 M322.7420726028388,558.1681077358703 L327.485506260732,556.778320814693 M327.485506260732,556.778320814693 L332.3709735477572,553.9565886560681 M332.3709735477572,553.9565886560681 L337.1145574934533,549.8669100525356 M337.1145574934533,549.8669100525356 L341.4405998427238,544.7469516049621 M341.4405998427238,544.7469516049621 L345.0976987703974,538.8942588863686 M345.0976987703974,538.8942588863686 L347.87334101328304,532.648950154965 M347.87334101328304,532.648950154965 L349.60621618643734,526.3739481251114 M349.60621618643734,526.3739481251114 L350.19561294294454,520.4339187788485" stroke="black"  stroke-width="4"  fill="red"/>
<path d="M160.13735309631124,447.0940997841653 L16.049219245577206,363.88899302996464 M182.65487904605237,434.09208340325875 L38.56674477805939,350.8898655609975 M160.13735309631124,447.0940997841653 L160.46441893025667,443.7942567177881 M160.46441893025667,443.7942567177881 L161.426811070074,440.30835999387097 M161.426811070074,440.30835999387097 L162.96859759948563,436.83900200455764 M162.96859759948563,436.83900200455764 L165.00017070491322,433.5878136950631 M165.00017070491322,433.5878136950631 L167.40346545420925,430.7437514639878 M167.40346545420925,430.7437514639878 L170.03879414247763,428.47210805982064 M170.03879414247763,428.47210805982064 L172.75300814894098,426.9049000571584 M172.75300814894098,426.9049000571584 L175.3883512743426,426.1332124791815 M175.3883512743426,426.1332124791815 L177.79167777546712,426.2018775599165 M177.79167777546712,426.2018775599165 L179.82330468467126,427.1069090723476 M179.82330468467126,427.1069090723476 L181.36517188197666,428.79569189391424 M181.36517188197666,428.79569189391424 L182.32767434388893,431.17008011819917 M182.32767434388893,431.17008011819917 L182.65487904605237,434.09208340325875 M16.049219245577206,363.88899302996464 L16.375985780134897,360.5893647332928 M16.375985780134897,360.5893647332928 L17.338096000635005,357.1037542479727 M17.338096000635005,357.1037542479727 L18.87963437527867,353.63473732992156 M18.87963437527867,353.63473732992156 L20.911007512762637,350.38392510101306 M20.911007512762637,350.38392510101306 L23.314162103875105,347.54025210243105 M23.314162103875105,347.54025210243105 L25.949418589476295,345.26898845942435 M25.949418589476295,345.26898845942435 L28.66363254564334,343.70212867697546 M28.66363254564334,343.70212867697546 L31.299047776042926,342.93073753943924 M31.299047776042926,342.93073753943924 L33.70251434628142,342.9996300552846 M33.70251434628142,342.9996300552846 L35.73434114813625,343.9048067793345 M35.73434114813625,343.9048067793345 L37.27645644306887,345.5936441526751 M37.27645644306887,345.5936441526751 L38.23924078863058,347.9679930994253 M38.23924078863058,347.9679930994253 L38.56674477805939,350.8898655609975 M182.65487904605237,434.09208340325875 L182.3277789859672,437.39188086552053 M182.3277789859672,437.39188086552053 L181.36538285000944,440.8777036536128 M181.36538285000944,440.8777036536128 L179.8236234698333,444.34697631321814 M179.8236234698333,444.34697631321814 L177.79210243933113,447.5980874470043 M177.79210243933113,447.5980874470043 L175.38887276120704,450.44209833656936 M175.38887276120704,450.44209833656936 L172.75360723297786,452.7137279949847 M172.75360723297786,452.7137279949847 L170.03944000653155,454.2809629967924 M170.03944000653155,454.2809629967924 L167.40411656418132,455.0527121335144 M167.40411656418132,455.0527121335144 L165.0007781400996,454.9841290688482 M165.0007781400996,454.9841290688482 L162.9691104332848,454.0791812408418 M162.9691104332848,454.0791812408418 L161.42718290998897,452.3904646009775 M161.42718290998897,452.3904646009775 L160.46461441364232,450.01610989428383 M160.46461441364232,450.01610989428383 L160.13735309631124,447.0940997841653 M38.56674477805939,350.8898655609975 L38.23994401487715,354.18944825786053 M38.23994401487715,354.18944825786053 L37.27782979134645,357.67498481929215 M37.27782979134645,357.67498481929215 L35.73631855622125,361.1439164244668 M35.73631855622125,361.1439164244668 L33.704997483344755,364.39465149553774 M33.704997483344755,364.39465149553774 L31.30190795484907,367.23827316742575 M31.30190795484907,367.23827316742575 L28.6667146244547,369.5095230730482 M28.6667146244547,369.5095230730482 L25.952547448302084,371.07640985464394 M25.952547448302084,371.07640985464394 L23.317151905781714,371.8478625425609 M23.317151905781714,371.8478625425609 L20.913673421138128,371.7790520279699 M20.913673421138128,371.7790520279699 L18.881805831989993,370.87395897047423 M18.881805831989993,370.87395897047423 L17.339630220785864,369.18518776200324 M17.339630220785864,369.18518776200324 L16.376779847683906,366.81087232090545 M16.376779847683906,366.81087232090545 L16.049219245577206,363.88899302996464" stroke="black"  stroke-width="4"  fill="red"/>
<path d="M160.13735309631124,447.0940997841653 L160.46441893025667,443.7942567177881 M160.46441893025667,443.7942567177881 L161.426811070074,440.30835999387097 M161.426811070074,440.30835999387097 L162.96859759948563,436.83900200455764 M162.96859759948563,436.83900200455764 L165.00017070491322,433.5878136950631 M165.00017070491322,433.5878136950631 L167.40346545420925,430.7437514639878 M167.40346545420925,430.7437514639878 L170.03879414247763,428.47210805982064 M170.03879414247763,428.47210805982064 L172.75300814894098,426.9049000571584 M172.75300814894098,426.9049000571584 L175.3883512743426,426.1332124791815 M175.3883512743426,426.1332124791815 L177.79167777546712,426.2018775599165 M177.79167777546712,426.2018775599165 L179.82330468467126,427.1069090723476 M179.82330468467126,427.1069090723476 L181.36517188197666,428.79569189391424 M181.36517188197666,428.79569189391424 L182.32767434388893,431.17008011819917 M182.32767434388893,431.17008011819917 L182.65487904605237,434.09208340325875 M182.65487904605237,434.09208340325875 L206.07224376101072,437.21252566502375 M165.54069272954484,460.6166777341186 L166.1294439089056,454.67688971017145 M166.1294439089056,454.67688971017145 L167.86180279269678,448.4021658842577 M167.86180279269678,448.4021658842577 L170.63707761512921,442.1571996558974 M170.63707761512921,442.1571996558974 L174.2939852760664,436.30493891343974 M174.2939852760664,436.30493891343974 L178.61998189414908,431.1855223378661 M178.61998189414908,431.1855223378661 L183.36364059330492,427.09648296872035 M183.36364059330492,427.09648296872035 L188.24925089989875,424.2754702734917 M188.24925089989875,424.2754702734917 L192.99287829844366,422.8864166438142 M192.99287829844366,422.8864166438142 L197.31882617773215,423.0100363581549 M197.31882617773215,423.0100363581549 L200.97569182162158,424.6391227248639 M200.97569182162158,424.6391227248639 L203.75096381066305,427.6789721088054 M203.75096381066305,427.6789721088054 L205.4833665084397,431.9529060784752 M205.4833665084397,431.9529060784752 L206.07224376101072,437.21252566502375 M160.13735309631124,447.0940997841653 L165.54069272954484,460.6166777341186 M182.65487904605237,434.09208340325875 L182.3277789859672,437.39188086552053 M182.3277789859672,437.39188086552053 L181.36538285000944,440.8777036536128 M181.36538285000944,440.8777036536128 L179.8236234698333,444.34697631321814 M179.8236234698333,444.34697631321814 L177.79210243933113,447.5980874470043 M177.79210243933113,447.5980874470043 L175.38887276120704,450.44209833656936 M175.38887276120704,450.44209833656936 L172.75360723297786,452.7137279949847 M172.75360723297786,452.7137279949847 L170.03944000653155,454.2809629967924 M170.03944000653155,454.2809629967924 L167.40411656418132,455.0527121335144 M167.40411656418132,455.0527121335144 L165.0007781400996,454.9841290688482 M165.0007781400996,454.9841290688482 L162.9691104332848,454.0791812408418 M162.9691104332848,454.0791812408418 L161.42718290998897,452.3904646009775 M161.42718290998897,452.3904646009775 L160.46461441364232,450.01610989428383 M160.46461441364232,450.01610989428383 L160.13735309631124,447.0940997841653 M206.07224376101072,437.21252566502375 L205.48338169006297,443.1521659302143 M205.48338169006297,443.1521659302143 L203.7510184507724,449.4266452401434 M203.7510184507724,449.4266452401434 L200.97582729988306,455.67133747475674 M200.97582729988306,455.67133747475674 L197.3190883652618,461.5233481622775 M197.3190883652618,461.5233481622775 L192.99330258020132,466.6425983864926 M192.99330258020132,466.6425983864926 L188.24984852152443,470.7315932168934 M188.24984852152443,470.7315932168934 L183.36438978190012,473.55269338918714 M183.36438978190012,473.55269338918714 L178.62082615500833,474.94194647200555 M178.62082615500833,474.94194647200555 L174.29483964253217,474.81859249437224 M174.29483964253217,474.81859249437224 L170.63784181105177,473.1897772709705 M170.63784181105177,473.1897772709705 L167.8623786575955,470.1501398411313 M167.8623786575955,470.1501398411313 L166.12975341618983,465.87631943233185 M166.12975341618983,465.87631943233185 L165.54069272954484,460.6166777341186" stroke="black"  stroke-width="4"  fill="red"/>
<path d="M206.07213654252718,312.41009603314234 L350.20750562258945,395.62456331549174 M199.67878378763504,299.0412786763425 L343.8157950248459,382.2556184906511 M206.07213654252718,312.41009603314234 L205.651043102367,307.90747575057765 M205.651043102367,307.90747575057765 L204.4052637443915,304.0781427713395 M204.4052637443915,304.0781427713395 L202.38654837005595,301.08123116379505 M202.38654837005595,301.08123116379505 L199.67878378763504,299.0412786763425 M350.20750562258945,395.62456331549174 L349.78686898469687,391.1217333816223 M349.78686898469687,391.1217333816223 L348.5415274596436,387.29230753530305 M348.5415274596436,387.29230753530305 L346.5232127539505,384.2954237065695 M346.5232127539505,384.2954237065695 L343.8157950248459,382.2556184906511 M185.80450303352592,291.34665568575986 L329.94302601340166,374.5619033233355 M199.67878378763504,299.0412786763425 L185.80450303352592,291.34665568575986 M343.8157950248459,382.2556184906511 L329.94302601340166,374.5619033233355 M171.93038072979067,315.06101659550376 L316.0673922064885,398.27891739142217 M185.80450303352592,291.34665568575986 L171.93038072979067,315.06101659550376 M329.94302601340166,374.5619033233355 L316.0673922064885,398.27891739142217 M165.537185964272,335.81231051830486 L309.6725553941682,419.0319797525452 M171.93038072979067,315.06101659550376 L169.2225934371212,320.22757345655157 M169.2225934371212,320.22757345655157 L167.20388921215704,325.55550310150375 M167.20388921215704,325.55550310150375 L165.95816356919937,330.82338855508897 M165.95816356919937,330.82338855508897 L165.537185964272,335.81231051830486 M316.0673922064885,398.27891739142217 L313.3592581072406,403.44602197461626 M313.3592581072406,403.44602197461626 L311.34015324847735,408.7744419815554 M311.34015324847735,408.7744419815554 L310.0939897940982,414.0427400567946 M310.0939897940982,414.0427400567946 L309.6725553941682,419.0319797525452 M165.537185964272,335.81231051830486 L166.12629576031145,341.07291894772374 M166.12629576031145,341.07291894772374 L167.85905683084877,345.34771180263283 M167.85905683084877,345.34771180263283 L170.6347599075783,348.38825161503024 M170.6347599075783,348.38825161503024 L174.29206253889583,350.01787122772254 M174.29206253889583,350.01787122772254 L178.61841389744342,350.14187026592873 M178.61841389744342,350.14187026592873 L183.36237287192728,348.75307039174976 M183.36237287192728,348.75307039174976 L188.24824737029246,345.93220028215205 M188.24824737029246,345.93220028215205 L192.99209675823454,341.843208633497 M192.99209675823454,341.843208633497 L197.3182473556252,336.72372460720356 M197.3182473556252,336.72372460720356 L200.97529104668695,330.8712613916934 M200.97529104668695,330.8712613916934 L203.75071777951666,324.62592639130895 M203.75071777951666,324.62592639130895 L205.48322969052924,318.3506438441398 M205.48322969052924,318.3506438441398 L206.07213654252718,312.41009603314234 M309.6725553941682,419.0319797525452 L310.26112610992624,424.2928237808886 M310.26112610992624,424.2928237808886 L311.9933794267895,428.5676873710854 M311.9933794267895,428.5676873710854 L314.7686355838306,431.60812894589554 M314.7686355838306,431.60812894589554 L318.4255780988755,433.23748706424516 M318.4255780988755,433.23748706424516 L322.75167707136063,433.36107655159316 M322.75167707136063,433.36107655159316 L327.4955060552036,431.9717428766257 M327.4955060552036,431.9717428766257 L332.38138051140277,429.150245740772 M332.38138051140277,429.150245740772 L337.12535980810367,425.0605702814356 M337.12535980810367,425.0605702814356 L341.4517627168832,419.94038539767007 M341.4517627168832,419.94038539767007 L345.10916646109206,414.08724500574573 M345.10916646109206,414.08724500574573 L347.8850400657009,407.84129585943157 M347.8850400657009,407.84129585943157 L349.6180597004791,401.5654978843592 M349.6180597004791,401.5654978843592 L350.20750562258945,395.62456331549174" stroke="black"  stroke-width="4"  fill="red"/>
<path d="M160.13340465641892,322.29085426538785 L16.033263894909737,239.092680782873 M182.65280731192826,309.28992120814155 L38.552666133055936,226.09463663757032 M160.13340465641892,322.29085426538785 L160.46049774173298,318.99050836996986 M160.46049774173298,318.99050836996986 L161.42297008532142,315.50416951775213 M161.42297008532142,315.50416951775213 L162.9648851096847,312.0344557969151 M162.9648851096847,312.0344557969151 L164.99662753299287,308.783018827159 M164.99662753299287,308.783018827159 L167.4001225828136,305.93882946078196 M167.4001225828136,305.93882946078196 L170.03567091163603,303.66718783386517 M170.03567091163603,303.66718783386517 L172.75011113411404,302.10011041832723 M172.75011113411404,302.10011041832723 L175.38567390247624,301.32867464637053 M175.38567390247624,301.32867464637053 L177.78920070941808,301.39769811651996 M177.78920070941808,301.39769811651996 L179.82099694547134,302.3031737721118 M179.82099694547134,302.3031737721118 L181.36299265117503,303.9924606765436 M181.36299265117503,303.9924606765436 L182.32557533524812,306.3673836278535 M182.32557533524812,306.3673836278535 L182.65280731192826,309.28992120814155 M16.033263894909737,239.092680782873 L16.360057630952042,235.79254974358247 M16.360057630952042,235.79254974358247 L17.322248008234624,232.30649721136183 M17.322248008234624,232.30649721136183 L18.863914836467757,228.83712463343414 M18.863914836467757,228.83712463343414 L20.895457258500585,225.5860638019945 M20.895457258500585,225.5860638019945 L23.298812126773726,222.74226370856843 M23.298812126773726,222.74226370856843 L25.934288240890965,220.4710018636456 M25.934288240890965,220.4710018636456 L28.6487284130601,218.90427266832017 M28.6487284130601,218.90427266832017 L31.284363298433902,218.13313331596862 M31.284363298433902,218.13313331596862 L33.688030197831495,218.20238418077008 M33.688030197831495,218.20238418077008 L35.72002635984825,219.10800499025072 M35.72002635984825,219.10800499025072 L37.262270204527,220.79734637481073 M37.262270204527,220.79734637481073 L38.2251348192292,223.17222996718846 M38.2251348192292,223.17222996718846 L38.552666133055936,226.09463663757032 M182.65280731192826,309.28992120814155 L182.32567999476908,312.5902214830998 M182.32567999476908,312.5902214830998 L181.36320365437393,316.0764863804285 M181.36320365437393,316.0764863804285 L179.82131578377152,319.54611475414106 M179.82131578377152,319.54611475414106 L177.78962544406932,322.7974745364096 M177.78962544406932,322.7974745364096 L175.3861954762674,325.6416125578331 M175.3861954762674,325.6416125578331 L172.75071031801258,327.91324044467973 M172.75071031801258,327.91324044467973 L170.03631688334957,329.48034487286753 M170.03631688334957,329.48034487286753 L167.40077380132004,330.2518422218034 M167.40077380132004,330.2518422218034 L164.9972350694336,330.1829007865089 M164.9972350694336,330.1829007865089 L162.9653980289691,329.27750883037646 M162.9653980289691,329.27750883037646 L161.42334198721915,327.5882881154861 M161.42334198721915,327.5882881154861 L160.46069325770418,325.2133986806147 M160.46069325770418,325.2133986806147 L160.13340465641892,322.29085426538785 M38.552666133055936,226.09463663757032 L38.22583816268309,229.3947220607119 M38.22583816268309,229.3947220607119 L37.26364378170183,232.88070064998504 M37.26364378170183,232.88070064998504 L35.722004097510194,236.34998789762506 M35.722004097510194,236.34998789762506 L33.690513748762726,239.60097155945215 M33.690513748762726,239.60097155945215 L31.287223953951013,242.44472032274297 M31.287223953951013,242.44472032274297 L28.65181100556788,244.71596843596228 M28.65181100556788,244.71596843596228 L25.937417621211125,246.28272464393626 M25.937417621211125,246.28272464393626 L23.301802426998904,247.0539255648976 M23.301802426998904,247.0539255648976 L20.898123611211133,246.9847567201315 M20.898123611211133,246.9847567201315 L18.866086655103004,246.0792195922349 M18.866086655103004,246.0792195922349 L17.323782484099354,244.3899443803803 M17.323782484099354,244.3899443803803 L16.360851830851118,242.01509429250171 M16.360851830851118,242.01509429250171 L16.033263894909737,239.092680782873" stroke="black"  stroke-width="4"  fill="red"/>
<path d="M160.13340465641892,322.29085426538785 L160.46049774173298,318.99050836996986 M160.46049774173298,318.99050836996986 L161.42297008532142,315.50416951775213 M161.42297008532142,315.50416951775213 L162.9648851096847,312.0344557969151 M162.9648851096847,312.0344557969151 L164.99662753299287,308.783018827159 M164.99662753299287,308.783018827159 L167.4001225828136,305.93882946078196 M167.4001225828136,305.93882946078196 L170.03567091163603,303.66718783386517 M170.03567091163603,303.66718783386517 L172.75011113411404,302.10011041832723 M172.75011113411404,302.10011041832723 L175.38567390247624,301.32867464637053 M175.38567390247624,301.32867464637053 L177.78920070941808,301.39769811651996 M177.78920070941808,301.39769811651996 L179.82099694547134,302.3031737721118 M179.82099694547134,302.3031737721118 L181.36299265117503,303.9924606765436 M181.36299265117503,303.9924606765436 L182.32557533524812,306.3673836278535 M182.32557533524812,306.3673836278535 L182.65280731192826,309.28992120814155 M182.65280731192826,309.28992120814155 L206.07212365722438,312.4101034722688 M165.53719455501084,335.8123055585773 L166.12599479199565,329.8716124156918 M166.12599479199565,329.8716124156918 L167.85849805098508,323.596092730373 M167.85849805098508,323.596092730373 L170.6340041746065,317.3504861592517 M170.6340041746065,317.3504861592517 L174.29121662019458,311.4977778100682 M174.29121662019458,311.4977778100682 L178.61757379073646,306.37813238073335 M178.61757379073646,306.37813238073335 L183.36162785335245,302.2890962117215 M183.36162785335245,302.2890962117215 L188.24764535367223,299.4683185826269 M188.24764535367223,299.4683185826269 L192.99166811045944,298.0797182207476 M192.99166811045944,298.0797182207476 L197.31797653408256,298.20398305671984 M197.31797653408256,298.20398305671984 L200.97514695561875,299.8338689019635 M200.97514695561875,299.8338689019635 L203.75065024501902,302.87462565389285 M203.75065024501902,302.87462565389285 L205.48319732601345,307.1495221461962 M205.48319732601345,307.1495221461962 L206.07212365722438,312.4101034722688 M160.13340465641892,322.29085426538785 L165.53719455501084,335.8123055585773 M182.65280731192826,309.28992120814155 L182.32567999476908,312.5902214830998 M182.32567999476908,312.5902214830998 L181.36320365437393,316.0764863804285 M181.36320365437393,316.0764863804285 L179.82131578377152,319.54611475414106 M179.82131578377152,319.54611475414106 L177.78962544406932,322.7974745364096 M177.78962544406932,322.7974745364096 L175.3861954762674,325.6416125578331 M175.3861954762674,325.6416125578331 L172.75071031801258,327.91324044467973 M172.75071031801258,327.91324044467973 L170.03631688334957,329.48034487286753 M170.03631688334957,329.48034487286753 L167.40077380132004,330.2518422218034 M167.40077380132004,330.2518422218034 L164.9972350694336,330.1829007865089 M164.9972350694336,330.1829007865089 L162.9653980289691,329.27750883037646 M162.9653980289691,329.27750883037646 L161.42334198721915,327.5882881154861 M161.42334198721915,327.5882881154861 L160.46069325770418,325.2133986806147 M160.46069325770418,325.2133986806147 L160.13340465641892,322.29085426538785 M206.07212365722438,312.4101034722688 L205.48321251016733,318.3506488034411 M205.48321251016733,318.3506488034411 L203.75070489423626,324.62592391141914 M203.75070489423626,324.62592391141914 L200.97528245646322,330.87125643215546 M200.97528245646322,330.87125643215546 L197.3182387653165,336.7237146882363 M197.3182387653165,336.7237146882363 L192.9920924629414,341.8431937550558 M192.9920924629414,341.8431937550558 L188.24824307491684,345.9321854037307 M188.24824307491684,345.9321854037307 L183.36237716683206,348.75305055364635 M183.36237716683206,348.75305055364635 L178.61841819232853,350.14185042774625 M178.61841819232853,350.14185042774625 L174.29207112907818,350.01785138935054 M174.29207112907818,350.01785138935054 L170.63476849791635,348.3882367361282 M170.63476849791635,348.3882367361282 L167.85907401187757,345.34769196390704 M167.85907401187757,345.34769196390704 L166.12630435087328,341.0729090283268 M166.12630435087328,341.0729090283268 L165.53719455501084,335.8123055585773" stroke="black"  stroke-width="4"  fill="red"/></svg>