<svg viewBox="0 0 800 800" xmlns="http://www.w3.org/2000/svg"><path d="M198.55203396370132,507.13198294636186 L120.40170984350664,552.262120027161 M276.69584573778445,507.13198294636186 L267.021752338193,502.6768080802318 M267.021752338193,502.6768080802318 L255.87367607100367,499.57649897564977 M255.87367607100367,499.57649897564977 L243.8105800939232,497.9864897706641 M243.8105800939232,497.9864897706641 L231.43729960756252,497.9864897706641 M231.43729960756252,497.9864897706641 L219.3742036304821,499.57649897564977 M219.3742036304821,499.57649897564977 L208.22612736329285,502.6768080802318 M208.22612736329285,502.6768080802318 L198.55203396370132,507.13198294636186 M491.6301346184914,631.2519278058588 L276.69584573778445,507.13198294636186 M769.9546287458659,470.46743868924545 L491.6301346184914,631.2519278058588 M730.8707857587953,447.90628730728247 L769.9546287458659,470.46743868924545 M511.15007490462176,574.8290691466538 L730.8707857587953,447.90628730728247 M472.07491275406755,574.8290691466538 L476.912935705333,577.0570449807084 M476.912935705333,577.0570449807084 L482.4879178038582,578.6074917031024 M482.4879178038582,578.6074917031024 L488.52028458188454,579.4026496472576 M488.52028458188454,579.4026496472576 L494.7075597661774,579.4026572137124 M494.7075597661774,579.4026572137124 L500.7394252476073,578.6074888446693 M500.7394252476073,578.6074888446693 L506.3134426104334,577.0570462207592 M506.3134426104334,577.0570462207592 L511.15007490462176,574.8290691466538 M237.62393985074283,439.44617865361124 L472.07491275406755,574.8290691466538 M81.3319748591046,529.6964246618902 L237.62393985074283,439.44617865361124 M120.40170984350664,552.262120027161 L81.3319748591046,529.6964246618902 M120.38216846264305,281.54521508791606 L198.54552089387516,236.42259739888766 M198.54552089387516,236.42259739888766 L198.54671729448614,286.149820185418 M198.54758142574042,322.0665917120541 L195.47403710408884,319.3958866106197 M195.47403710408884,319.3958866106197 L193.33493990359813,315.50696456814546 M193.33493990359813,315.50696456814546 L192.2377548997227,310.59511510672576 M192.2377548997227,310.59511510672576 L192.23759595186135,304.9070345144702 M192.23759595186135,304.9070345144702 L193.33448237592336,298.72839580823165 M193.33448237592336,298.72839580823165 L195.47333572674995,292.36952828241124 M195.47333572674995,292.36952828241124 L198.54671729448614,286.149820185418 M198.54758142574042,322.0665917120541 L198.54997390139437,421.50750536799285 M198.5508378886268,457.418290766051 L195.47754972079633,454.74847435506786 M195.47754972079633,454.74847435506786 L193.3386308019946,450.8605091726886 M193.3386308019946,450.8605091726886 L192.24153724974133,445.9496366847402 M192.24153724974133,445.9496366847402 L192.24137832837135,440.2625041101668 M192.24137832837135,440.2625041101668 L193.33817335057472,434.08473685125784 M193.33817335057472,434.08473685125784 L195.47684846035395,427.7266204297473 M195.47684846035395,427.7266204297473 L198.54997390139437,421.50750536799285 M198.5508378886268,457.418290766051 L198.55203396370132,507.13198294636186 M120.40170984350664,552.262120027161 L120.38216846264305,281.54521508791606 M276.70235880761055,236.42259739888777 L276.69584573778445,507.13198294636186 M276.70235880761055,236.42259739888777 L267.02665276346767,231.96816488039894 M267.02665276346767,231.96816488039894 L255.87671817242796,228.86837237250109 M255.87671817242796,228.86837237250109 L243.81161136089725,227.27862810826792 M243.81161136089725,227.27862810826792 L231.43626834058847,227.27862810826792 M231.43626834058847,227.27862810826792 L219.37116152905782,228.86837237250109 M219.37116152905782,228.86837237250109 L208.22122693801805,231.96816488039894 M208.22122693801805,231.96816488039894 L198.54552089387516,236.42259739888766 M199.03590682445565,285.3272041367464 L198.54671729448614,286.149820185418 M199.03590682445565,285.3272041367464 L207.57977629613066,272.69112820961095 M207.57977629613066,272.69112820961095 L217.29970405123777,261.4652399752653 M217.29970405123777,261.4652399752653 L228.8826522166512,267.98463753782295 M228.8826522166512,267.98463753782295 L236.36742120425708,272.2129858998062 M236.36742120425708,272.2129858998062 L243.875392038119,276.4660787647608 M243.875392038119,276.4660787647608 L255.1312337749609,284.53696486725664 M255.1312337749609,284.53696486725664 L259.877938774418,289.55494354913134 M259.877938774418,289.55494354913134 L262.63904943166625,293.5971740052952 M262.63904943166625,293.5971740052952 L263.5889173950224,295.64914511368363 M263.5889173950224,295.64914511368363 L264.1518436181686,297.91560812784525 M264.1518436181686,297.91560812784525 L264.09707239920664,299.80759977072466 M264.09707239920664,299.80759977072466 L263.5094034487454,301.51918667398814 M263.5094034487454,301.51918667398814 L261.69576666342687,303.8649528033897 M261.69576666342687,303.8649528033897 L255.52642528661522,308.06363674934653 M255.52642528661522,308.06363674934653 L243.8482179522739,313.48118411042844 M243.8482179522739,313.48118411042844 L233.37207613118477,317.52408753425647 M233.37207613118477,317.52408753425647 L224.78173354657696,320.37338271710445 M224.78173354657696,320.37338271710445 L217.12145050902325,322.42076174967735 M217.12145050902325,322.42076174967735 L210.85804810269417,323.5385656873808 M210.85804810269417,323.5385656873808 L205.40862963372786,323.8014290175998 M205.40862963372786,323.8014290175998 L201.67291223547676,323.29619930509233 M201.67291223547676,323.29619930509233 L198.54758142574042,322.0665917120541 M199.03912266339222,420.6849566900148 L198.54997390139437,421.50750536799285 M199.03912266339222,420.6849566900148 L207.5822801096728,408.05000202726495 M207.5822801096728,408.05000202726495 L217.30139783038828,396.8252647722484 M217.30139783038828,396.8252647722484 L228.8833806918082,403.3431144808999 M228.8833806918082,403.3431144808999 L236.36752591875785,407.57065976430687 M236.36752591875785,407.57065976430687 L243.87487106199166,411.8230929157813 M243.87487106199166,411.8230929157813 L255.12977477618261,419.892993508337 M255.12977477618261,419.892993508337 L259.87608420337364,424.9104003337418 M259.87608420337364,424.9104003337418 L262.6369647615238,428.9521457269981 M262.6369647615238,428.9521457269981 L263.58675356777485,431.00385149352655 M263.58675356777485,431.00385149352655 L264.14963288114336,433.26997524161743 M264.14963288114336,433.26997524161743 L264.0948662292516,435.1616472363107 M264.0948662292516,435.1616472363107 L263.5072462558808,436.8729032543563 M263.5072462558808,436.8729032543563 L261.6937606167917,439.21814576277666 M261.6937606167917,439.21814576277666 L255.5249333753065,443.41576361700515 M255.5249333753065,443.41576361700515 L243.8476992525703,448.83202870362834 M243.8476992525703,448.83202870362834 L233.37243045893814,452.874228527902 M233.37243045893814,452.874228527902 L224.78280374758845,455.72324892996187 M224.78280374758845,455.72324892996187 L217.12315907935994,457.7706295535328 M217.12315907935994,457.7706295535328 L210.86027398000948,458.8886866841277 M210.86027398000948,458.8886866841277 L205.4113143054463,459.15199292291834 M205.4113143054463,459.15199292291834 L201.67590823464548,458.6472758638257 M201.67590823464548,458.6472758638257 L198.5508378886268,457.418290766051 M276.70235880761055,236.42259739888777 L491.6724825120855,360.521863931937 M491.6724825120855,360.521863931937 L491.6301346184914,631.2519278058588 M770.04336131082,199.76416264774514 L491.6724825120855,360.521863931937 M769.9546287458659,470.46743868924545 L770.04336131082,199.76416264774514 M677.2308104401204,380.8145640457717 L673.6701638721191,386.9055876758035 M682.1018904068983,386.24972052020905 L681.7586765639733,388.19713815883944 M681.7586765639733,388.19713815883944 L680.9572622563994,390.1964652643049 M680.9572622563994,390.1964652643049 L679.778707054308,392.0454756967962 M679.778707054308,392.0454756967962 L678.3422164473378,393.5571481191927 M678.3422164473378,393.5571481191927 L676.7930878490938,394.5785789278654 M676.7930878490938,394.5785789278654 L675.2880131329167,395.006451167742 M675.2880131329167,395.006451167742 L673.979236908583,394.7974783873009 M673.979236908583,394.7974783873009 L672.9991255621776,393.97280478802924 M672.9991255621776,393.97280478802924 L672.4468325557607,392.61583440060286 M672.4468325557607,392.61583440060286 L672.3782240639424,390.8638223562524 M672.3782240639424,390.8638223562524 L672.800229135877,388.8939906741998 M672.800229135877,388.8939906741998 L673.6701638721191,386.9055876758035 M682.1018904068983,386.24972052020905 L682.0733183391496,385.2054053709112 M680.3423757778206,382.56703642239745 L681.1799745052717,383.1136466280794 M681.1799745052717,383.1136466280794 L681.7693006971966,384.01191564985766 M681.7693006971966,384.01191564985766 L682.0733183391496,385.2054053709112 M680.3423757778206,382.56703642239745 L677.2308104401204,380.8145640457717 M730.9530012741511,177.20677096180225 L770.04336131082,199.76416264774514 M730.8707857587953,447.90628730728247 L730.9530012741511,177.20677096180225 M730.9530012741511,177.20677096180225 L511.1956739935696,304.10840451164535 M511.1956739935696,304.10840451164535 L511.15007490462176,574.8290691466538 M642.986198453282,362.6433217064833 L643.0147960634375,363.687623046806 M634.582967920816,364.34327812584627 L633.7130689478421,366.33163258017663 M633.7130689478421,366.33163258017663 L633.2911054286599,368.30142675880285 M633.2911054286599,368.30142675880285 L633.359757059645,370.0534161338503 M633.359757059645,370.0534161338503 L633.912090428168,371.41038097945636 M633.912090428168,371.41038097945636 L634.8922352770871,372.2350667248387 M634.8922352770871,372.2350667248387 L636.2010347556849,372.4440681101455 M636.2010347556849,372.4440681101455 L637.7061201257962,372.01623804091355 M637.7061201257962,372.01623804091355 L639.255245700067,370.99485870279455 M639.255245700067,370.99485870279455 L640.6917199109987,369.48324184467066 M640.6917199109987,369.48324184467066 L641.8702470033846,367.6342854499953 M641.8702470033846,367.6342854499953 L642.671624330762,365.6350053902479 M642.671624330762,365.6350053902479 L643.0147960634375,363.687623046806 M634.582967920816,364.34327812584627 L638.1435174085624,358.25242476366805 M638.1435174085624,358.25242476366805 L641.2551682653593,360.00494771518095 M642.986198453282,362.6433217064833 L642.6821478419309,361.44984123461666 M642.6821478419309,361.44984123461666 L642.0927918162743,360.5515704958885 M642.0927918162743,360.5515704958885 L641.2551682653593,360.00494771518095 M472.1139976874514,304.10840451164535 L476.95282728693394,306.33600917211027 M476.95282728693394,306.33600917211027 L482.52873886196267,307.8861975962815 M482.52873886196267,307.8861975962815 L488.56211133148895,308.68122307068654 M488.56211133148895,308.68122307068654 L494.75041799198857,308.68123063588064 M494.75041799198857,308.68123063588064 L500.7832889984428,307.88619473832495 M500.7832889984428,307.88619473832495 L506.3582355152904,306.3360104119543 M506.3582355152904,306.3360104119543 L511.1956739935696,304.10840451164535 M472.1139976874514,304.10840451164535 L472.07491275406755,574.8290691466538 M237.6239398507429,168.74807219414117 L472.1139976874514,304.10840451164535 M237.6239398507429,168.74807219414117 L237.62393985074283,439.44617865361124 M81.30592113227021,258.9832794184957 L237.6239398507429,168.74807219414117 M81.3319748591046,529.6964246618902 L81.30592113227021,258.9832794184957 M162.79411052098447,279.6304801824125 L163.14911593685162,282.8000674436672 M163.14911593685162,282.8000674436672 L164.19319030642816,285.37571732410953 M164.19319030642816,285.37571732410953 L165.86564804541308,287.20774914082887 M165.86564804541308,287.20774914082887 L168.06928372353212,288.18970415031544 M168.06928372353212,288.18970415031544 L170.67603403193903,288.26451071361714 M170.67603403193903,288.26451071361714 L173.5343906625368,287.42784125922844 M173.5343906625368,287.42784125922844 L176.47825170358624,285.72831464253517 M176.47825170358624,285.72831464253517 L179.33652203085285,283.26471115851297 M179.33652203085285,283.26471115851297 L181.94310877957508,280.18020059631993 M181.94310877957508,280.18020059631993 L184.14652028590206,276.6540406890947 M184.14652028590206,276.6540406890947 L185.8187148808123,272.89115464920167 M185.8187148808123,272.89115464920167 L186.86251053777045,269.11021675864106 M186.86251053777045,269.11021675864106 L187.2172436227225,265.53095281917206 M187.2172436227225,265.53095281917206 L186.8622996179492,262.36137297136486 M186.8622996179492,262.36137297136486 L185.81829687599884,259.7856867430361 M185.81829687599884,259.7856867430361 L184.14590457212768,257.9535831440267 M184.14590457212768,257.9535831440267 L181.94231314623732,256.971537362259 M181.94231314623732,256.971537362259 L179.33557576948618,256.8966418315047 M179.33557576948618,256.8966418315047 L176.47719778753964,257.7332445047217 M176.47719778753964,257.7332445047217 L173.53328600335777,259.4327418251874 M173.53328600335777,259.4327418251874 L170.67494716603778,261.8963602094677 M170.67494716603778,261.8963602094677 L168.06828983482797,264.980926454769 M168.06828983482797,264.980926454769 L165.86482184356458,268.5071700717986 M165.86482184356458,268.5071700717986 L164.19259780096797,272.2701486710961 M164.19259780096797,272.2701486710961 L163.14880647981744,276.05116676655257 M163.14880647981744,276.05116676655257 L162.79411052098447,279.6304801824125 M162.80034641198142,414.9831326175439 L163.1553222292643,418.15214041901584 M163.1553222292643,418.15214041901584 L164.1993095753287,420.7272103800236 M164.1993095753287,420.7272103800236 L165.8716279245221,422.55869552020886 M165.8716279245221,422.55869552020886 L168.07507994855325,423.5401688655486 M168.07507994855325,423.5401688655486 L170.68161301186672,423.6145867691022 M170.68161301186672,423.6145867691022 L173.53973143307434,422.7776442448452 M173.53973143307434,422.7776442448452 L176.48334714286625,421.07797601618415 M176.48334714286625,421.07797601618415 L179.34137927512592,418.6143706074391 M179.34137927512592,418.6143706074391 L181.94774880601364,415.5299979179116 M181.94774880601364,415.5299979179116 L184.15097669561317,412.0041076698585 M184.15097669561317,412.0041076698585 L185.82303194458757,408.241607403542 M185.82303194458757,408.241607403542 L186.8667406244839,404.4611489837156 M186.8667406244839,404.4611489837156 L187.22144415623853,400.88243034933254 M187.22144415623853,400.88243034933254 L186.86652973981427,397.7134299505931 M186.86652973981427,397.7134299505931 L185.82261400943838,395.13832364044873 M185.82261400943838,395.13832364044873 L184.1503610844531,393.3067667264746 M184.1503610844531,393.3067667264746 L181.9469533052756,392.32520262515874 M181.9469533052756,392.32520262515874 L179.34043317146285,392.250695774526 M179.34043317146285,392.250695774526 L176.4822934024653,393.08757153738594 M176.4822934024653,393.08757153738594 L173.5386269579982,394.78721048446516 M173.5386269579982,394.78721048446516 L170.6805263271034,397.25083079962985 M170.6805263271034,397.25083079962985 L168.07408622549156,400.33525916853165 M168.07408622549156,400.33525916853165 L165.8708018603694,403.86123311361484 M165.8708018603694,403.86123311361484 L164.19871716861633,407.6238259204476 M164.19871716861633,407.6238259204476 L163.15501282380473,411.40436452449535 M163.15501282380473,411.40436452449535 L162.80034641198142,414.9831326175439 M120.38216846264305,281.54521508791606 L81.30592113227021,258.9832794184957 M186.24290476625623,428.5202679688814 L186.5978318859555,431.6892970511277 M186.5978318859555,431.6892970511277 L187.6417733658339,434.26437339703944 M187.6417733658339,434.26437339703944 L189.31405134568064,436.09584965541103 M189.31405134568064,436.09584965541103 L191.5174708431225,437.07729936872227 M191.5174708431225,437.07729936872227 L194.12398111289247,437.15168026347817 M194.12398111289247,437.15168026347817 L196.98208779808635,436.31468950495855 M196.98208779808635,436.31468950495855 L199.92570351142825,434.61496461959814 M199.92570351142825,434.61496461959814 L202.78374738659517,432.15129742464774 M202.78374738659517,432.15129742464774 L205.3901397173131,429.06686140984834 M205.3901397173131,429.06686140984834 L207.59340013881643,425.5409099776796 M207.59340013881643,425.5409099776796 L209.26549576117088,421.77835422386465 M209.26549576117088,421.77835422386465 L210.30925030977102,417.9978492376673 M210.30925030977102,417.9978492376673 L210.66400253996522,414.4190956641531 M210.66400253996522,414.4190956641531 L210.30913682152948,411.250073983938 M210.30913682152948,411.250073983938 L209.2652669584611,408.67496128694694 M209.2652669584611,408.67496128694694 L207.5930544044037,406.84341325204764 M207.5930544044037,406.84341325204764 L205.38967915349423,405.86187277985283 M205.38967915349423,405.86187277985283 L202.78318181461663,405.78740293560753 M202.78318181461663,405.78740293560753 L199.9250537824184,406.62432693136935 M199.9250537824184,406.62432693136935 L196.98138733440112,408.32402253514834 M196.98138733440112,408.32402253514834 L194.12327495981305,410.7877046378798 M194.12327495981305,410.7877046378798 L191.51681205697918,413.87219633446426 M191.51681205697918,413.87219633446426 L189.31349515827458,417.3982314665708 M189.31349515827458,417.3982314665708 L187.64137009156036,421.16087976364065 M187.64137009156036,421.16087976364065 L186.59761987692372,424.941464936001 M186.59761987692372,424.941464936001 L186.24290476625623,428.5202679688814 M210.66400253996522,414.4190956641531 L223.3624793432303,416.1112102192824 M223.3624793432303,416.1112102192824 L236.0610090576007,417.8033318249936 M236.0610090576007,417.8033318249936 L235.60436952889825,412.92094368548544 M235.60436952889825,412.92094368548544 L234.2533878879152,408.76877623010466 M234.2533878879152,408.76877623010466 L232.06419813252785,405.51937136535446 M232.06419813252785,405.51937136535446 L229.12777105812546,403.30775928789785 M199.03609971751263,420.6832110929746 L202.80880205387052,415.2188775332845 M202.80880205387052,415.2188775332845 L207.1026450989275,410.4607320276697 M207.1026450989275,410.4607320276697 L211.71913600725645,406.6287405678851 M211.71913600725645,406.6287405678851 L216.44485356755132,403.90005207822935 M216.44485356755132,403.90005207822935 L221.06131696783928,402.4008085405543 M221.06131696783928,402.4008085405543 L225.35511464211027,402.2002991222363 M225.35511464211027,402.2002991222363 L229.12777105812546,403.30775928789785 M199.03609971751263,420.6832110929746 L198.87245068677782,420.95697839630157 M198.87245068677782,420.95697839630157 L198.71040408970896,421.23175122313455 M198.71040408970896,421.23175122313455 L198.54997390139437,421.50750536799285 M198.5508378886268,457.418290766051 L202.60928205242305,458.7641529137338 M202.60928205242305,458.7641529137338 L207.30135000271991,458.548656213869 M207.30135000271991,458.548656213869 L212.3678878621992,456.78372369141493 M212.3678878621992,456.78372369141493 L217.52907754312804,453.5668397041163 M217.52907754312804,453.5668397041163 L222.4998758550053,449.07570561621844 M222.4998758550053,449.07570561621844 L227.00575894375345,443.5583377402269 M227.00575894375345,443.5583377402269 L230.79787863139745,437.319473884094 M230.79787863139745,437.319473884094 L233.666802679954,430.7036593685224 M233.666802679954,430.7036593685224 L235.45409019827548,424.076267401628 M235.45409019827548,424.076267401628 L236.0610090576007,417.8033318249936 M186.23862253574475,293.1664876249391 L186.59357924591126,296.33609618102855 M186.59357924591126,296.33609618102855 L187.63760774165684,298.9117524596176 M187.63760774165684,298.9117524596176 L189.31002510456642,300.74377540617877 M189.31002510456642,300.74377540617877 L191.51362825067486,301.7257067930278 M191.51362825067486,301.7257067930278 L194.12035576173918,301.80047635411296 M194.12035576173918,301.80047635411296 L196.97870065436746,300.96375866884995 M196.97870065436746,300.96375866884995 L199.92256169896774,299.2641753954563 M199.92256169896774,299.2641753954563 L202.78084377109917,296.8005101218385 M202.78084377109917,296.8005101218385 L205.38745332345218,293.7159362277911 M205.38745332345218,293.7159362277911 L207.59089736710564,290.18971512705787 M207.59089736710564,290.18971512705787 L209.26313234212557,286.42677358800995 M209.26313234212557,286.42677358800995 L210.3069738754332,282.64578911783576 M210.3069738754332,282.64578911783576 L210.66175566694204,279.0664902251757 M210.66175566694204,279.0664902251757 L210.30686036827433,275.89688908183274 M210.30686036827433,275.89688908183274 L209.2629035012768,273.32119645341453 M209.2629035012768,273.32119645341453 L207.59055157506253,271.48910172182394 M207.59055157506253,271.48910172182394 L205.3869926828619,270.50707955978555 M205.3869926828619,270.50707955978555 L202.78027810484525,270.4322210288367 M202.78027810484525,270.4322210288367 L199.92191186165417,271.2688719315664 M199.92191186165417,271.2688719315664 L196.97800007392124,272.9684259087324 M196.97800007392124,272.9684259087324 L194.11964949095022,275.43210608396953 M194.11964949095022,275.43210608396953 L191.51296935471743,278.51673566353645 M191.51296935471743,278.51673566353645 L189.3094688244484,282.04304047698236 M189.3094688244484,282.04304047698236 L187.63720440016067,285.8060745781739 M187.63720440016067,285.8060745781739 L186.59336720153925,289.5871392551869 M186.59336720153925,289.5871392551869 L186.23862253574475,293.1664876249391 M210.66175566694204,279.0664902251757 L223.3612907737882,280.7584637917312 M223.3612907737882,280.7584637917312 L236.0608788005593,282.4504444088687 M236.0608788005593,282.4504444088687 L235.6042012142325,277.5671765012194 M235.6042012142325,277.5671765012194 L234.2531069788581,273.4141218848823 M234.2531069788581,273.4141218848823 L232.06373476967434,270.16385933159995 M232.06373476967434,270.16385933159995 L229.12706296287456,267.95145468017455 M199.03288362663653,285.325458685154 L202.80590039954507,279.86075890012097 M202.80590039954507,279.86075890012097 L207.10010131760345,275.1024454997306 M207.10010131760345,275.1024454997306 L211.71697699044194,271.2704790403645 M211.71697699044194,271.2704790403645 L216.44308841812028,268.5420179237891 M216.44308841812028,268.5420179237891 L221.05993657841026,267.0431936174496 M221.05993657841026,267.0431936174496 L225.3540921179635,266.843265270421 M225.3540921179635,266.843265270421 L229.12706296287456,267.95145468017455 M199.03288362663653,285.325458685154 L198.86922095660765,285.59924799862233 M198.86922095660765,285.59924799862233 L198.7071608538065,285.874043234543 M198.7071608538065,285.874043234543 L198.54671729448614,286.149820185418 M198.54758142574042,322.0665917120541 L202.606363846808,323.4132640768763 M202.606363846808,323.4132640768763 L207.29882285756992,323.19840611336815 M207.29882285756992,323.19840611336815 L212.36578298147026,321.4339081137322 M212.36578298147026,321.4339081137322 L217.52740281039985,318.21724104945537 M217.52740281039985,318.21724104945537 L222.4986153983849,313.7260678632224 M222.4986153983849,313.7260678632224 L227.00487401381378,308.2084361611566 M227.00487401381378,308.2084361611566 L230.79730974066456,301.96907979641713 M230.79730974066456,301.96907979641713 L233.666472887871,295.35257666431005 M233.666472887871,295.35257666431005 L235.45390936027013,288.7243380016382 M235.45390936027013,288.7243380016382 L236.0608788005593,282.4504444088687 M199.03288362663653,285.325458685154 L199.03590682445565,285.3272041367464 M214.0798873720817,259.6063487034227 L199.03288362663653,285.325458685154 M214.0798873720817,259.6063487034227 L217.29970405123777,261.4652399752653 M229.12706296287456,267.95145468017455 L214.0798873720817,259.6063487034227 M229.12706296287456,267.95145468017455 L243.875392038119,276.4660787647608 M199.03609971751263,420.6832110929746 L199.03912266339222,420.6849566900148 M214.08184947950463,394.96621858537185 L199.03609971751263,420.6832110929746 M214.08184947950463,394.96621858537185 L217.30139783038828,396.8252647722484 M229.12777105812546,403.30775928789785 L214.08184947950463,394.96621858537185 M229.12777105812546,403.30775928789785 L243.87487106199166,411.8230929157813 M634.582967920816,364.34327812584627 L673.6701638721191,386.9055876758035 M638.1435174085624,358.25242476366805 L677.2308104401204,380.8145640457717 M643.0147960634375,363.687623046806 L682.1018904068983,386.24972052020905 M642.986198453282,362.6433217064833 L682.0733183391496,385.2054053709112 M641.2551682653593,360.00494771518095 L680.3423757778206,382.56703642239745 M186.23862253574475,293.1664876249391 L162.79411052098447,279.6304801824125 M186.24290476625623,428.5202679688814 L162.80034641198142,414.9831326175439" stroke="black"  stroke-width="4"  fill="red"/>
<path d="M687.0195152090673,428.19732714048496 L687.873135519602,419.60710949314466 M687.873135519602,419.60710949314466 L690.3799184347776,410.53251764285864 M690.3799184347776,410.53251764285864 L694.3941843394024,401.50097288441896 M694.3941843394024,401.50097288441896 L699.6826160170439,393.0374028600968 M699.6826160170439,393.0374028600968 L705.9378395933169,385.63372642147533 M705.9378395933169,385.63372642147533 L712.796301809017,379.7202353087631 M712.796301809017,379.7202353087631 L719.8593795952664,375.6406075927382 M719.8593795952664,375.6406075927382 L726.7165457977948,373.63193456211764 M726.7165457977948,373.63193456211764 L732.9693126061954,373.8108993045241 M732.9693126061954,373.8108993045241 L738.2542651819646,376.1670796873878 M738.2542651819646,376.1670796873878 L742.2642907706784,380.5634891768369 M742.2642907706784,380.5634891768369 L744.7663740838326,386.7445919428768 M744.7663740838326,386.7445919428768 L745.6151598511724,394.3511330080192 M745.6151598511724,394.3511330080192 L744.7613165802583,402.94107108083773 M744.7613165802583,402.94107108083773 L742.2545181697324,412.01519557219285 M742.2545181697324,412.01519557219285 L738.2404312922517,421.04620178018627 M738.2404312922517,421.04620178018627 L732.9523249709484,429.50928958520115 M732.9523249709484,429.50928958520115 L726.697489231763,436.9126559863711 M726.697489231763,436.9126559863711 L719.8394307847577,442.8260558353428 M719.8394307847577,442.8260558353428 L712.7766450807065,446.90585225542486 M712.7766450807065,446.90585225542486 L705.9195923605396,448.91491530935514 M705.9195923605396,448.91491530935514 L699.6667695581965,448.73645227402335 M699.6667695581965,448.73645227402335 L694.3815620391401,446.3807947804132 M694.3815620391401,446.3807947804132 L690.3711502759077,441.9848041949448 M690.3711502759077,441.9848041949448 L687.8686452050475,435.8039162343938 M687.8686452050475,435.8039162343938 L687.0195152090673,428.19732714048496 M687.0195152090673,428.19732714048496 L652.8249317153171,425.37670321864425 M652.8249317153171,425.37670321864425 L618.6305857185873,422.55609888732647 M618.6305857185873,422.55609888732647 L620.3295892635762,437.76914943374595 M620.3295892635762,437.76914943374595 L625.3353792357234,450.1306648373567 M625.3353792357234,450.1306648373567 L633.356903030862,458.9223035702206 M633.356903030862,458.9223035702206 L643.9278336542351,463.6332848035032 M643.9278336542351,463.6332848035032 L656.433745937589,463.98998921324755 M656.433745937589,463.98998921324755 L670.1478228244628,459.9718644673019 M670.1478228244628,459.9718644673019 L684.2730837987206,451.8125670558552 M684.2730837987206,451.8125670558552 L697.9887404673552,439.98633148116926 M697.9887404673552,439.98633148116926 L710.4977859717148,425.180447644752 M710.4977859717148,425.180447644752 L721.073413027224,408.2552437454266 M721.073413027224,408.2552437454266 L729.1011125989535,390.1941976493914 M729.1011125989535,390.1941976493914 L734.1143856636179,372.04677243756686 M734.1143856636179,372.04677243756686 L735.8218772816123,354.8674715620148 M735.8218772816123,354.8674715620148 L734.1242878884916,339.6545916397461 M734.1242878884916,339.6545916397461 L729.1201476513575,327.2922386066481 M729.1201476513575,327.2922386066481 L721.1001312401212,318.4989458809256 M721.1001312401212,318.4989458809256 L710.530220325001,313.7858732024061 M710.530220325001,313.7858732024061 L698.0246157855081,313.4271136411239 M698.0246157855081,313.4271136411239 L684.3100383706407,317.44370524341923 M684.3100383706407,317.44370524341923 L670.1836090690653,325.60232783950914 M670.1836090690653,325.60232783950914 L656.4663839218179,337.4289015182302 M656.4663839218179,337.4289015182302 L643.9557033029413,352.23607382883415 M643.9557033029413,352.23607382883415 L633.3787748867073,369.16320649347045 M633.3787748867073,369.16320649347045 L625.3503965195902,387.2263851676458 M625.3503965195902,387.2263851676458 L620.3372227318669,405.3756582225331 M620.3372227318669,405.3756582225331 L618.6305857185873,422.55609888732647 M716.320275285074,403.37795695156046 L712.7595316315258,409.46915085896524 M721.1911565341555,408.8130716042611 L720.8479005768312,410.76052453899615 M720.8479005768312,410.76052453899615 L720.0464492861886,412.7598986923216 M720.0464492861886,412.7598986923216 L718.8678659730869,414.6089631657798 M718.8678659730869,414.6089631657798 L717.4313589704736,416.12069115629026 M717.4313589704736,416.12069115629026 L715.8822273503117,417.1421734396598 M715.8822273503117,417.1421734396598 L714.3771632915762,417.57008785420703 M714.3771632915762,417.57008785420703 L713.0684103261104,417.36114368213305 M713.0684103261104,417.36114368213305 L712.0883324874551,416.53648223159496 M712.0883324874551,416.53648223159496 L711.5360798484824,415.179506303827 M711.5360798484824,415.179506303827 L711.4675145007309,413.4274715903588 M711.4675145007309,413.4274715903588 L711.8895611293842,411.45760240375284 M711.8895611293842,411.45760240375284 L712.7595316315258,409.46915085896524 M721.1911565341555,408.8130716042611 L721.1626100116958,407.7687426460657 M719.4317550893712,405.1303787449735 L720.2693289893062,405.67697637338847 M720.2693289893062,405.67697637338847 L720.8586253432745,406.57524367663956 M720.8586253432745,406.57524367663956 L721.1626100116958,407.7687426460657 M719.4317550893712,405.1303787449735 L716.320275285074,403.37795695156046 M673.6701638721191,386.9055876758035 L672.800229135877,388.8939906741998 M672.800229135877,388.8939906741998 L672.3782240639424,390.8638223562524 M672.3782240639424,390.8638223562524 L672.4468325557607,392.61583440060286 M672.4468325557607,392.61583440060286 L672.9991255621776,393.97280478802924 M672.9991255621776,393.97280478802924 L673.979236908583,394.7974783873009 M673.979236908583,394.7974783873009 L675.2880131329167,395.006451167742 M675.2880131329167,395.006451167742 L676.7930878490938,394.5785789278654 M676.7930878490938,394.5785789278654 L678.3422164473378,393.5571481191927 M678.3422164473378,393.5571481191927 L679.778707054308,392.0454756967962 M679.778707054308,392.0454756967962 L680.9572622563994,390.1964652643049 M680.9572622563994,390.1964652643049 L681.7586765639733,388.19713815883944 M681.7586765639733,388.19713815883944 L682.1018904068983,386.24972052020905 M682.1018904068983,386.24972052020905 L682.0733183391496,385.2054053709112 M682.0733183391496,385.2054053709112 L681.7693006971966,384.01191564985766 M681.7693006971966,384.01191564985766 L681.1799745052717,383.1136466280794 M681.1799745052717,383.1136466280794 L680.3423757778206,382.56703642239745 M680.3423757778206,382.56703642239745 L677.2308104401204,380.8145640457717 M677.2308104401204,380.8145640457717 L673.6701638721191,386.9055876758035 M673.6701638721191,386.9055876758035 L712.7595316315258,409.46915085896524 M682.1018904068983,386.24972052020905 L721.1911565341555,408.8130716042611 M677.2308104401204,380.8145640457717 L716.320275285074,403.37795695156046 M680.3423757778206,382.56703642239745 L719.4317550893712,405.1303787449735 M682.0733183391496,385.2054053709112 L721.1626100116958,407.7687426460657" stroke="black"  stroke-width="4"  fill="red"/>
<path d="M599.0553839196723,349.2267918687895 L755.4075965504029,439.47860839581335 M599.970381988291,348.5984715613928 L756.3226041754361,438.8501650859963 M599.0553839196723,349.2267918687895 L599.3619865874693,349.0385922904378 M599.3619865874693,349.0385922904378 L599.6673926375296,348.8288736122029 M599.6673926375296,348.8288736122029 L599.970381988291,348.5984715613928 M755.4075965504029,439.47860839581335 L755.714200268601,439.2903688417821 M755.714200268601,439.2903688417821 L756.0196095083127,439.0806091081075 M756.0196095083127,439.0806091081075 L756.3226041754361,438.8501650859963 M600.8530026717855,347.7926276388102 L757.2052533167433,438.0441914206442 M599.970381988291,348.5984715613928 L600.269762480547,348.3482941327582 M600.269762480547,348.3482941327582 L600.5643605643758,348.0793236058416 M600.5643605643758,348.0793236058416 L600.8530026717855,347.7926276388102 M756.3226041754361,438.8501650859963 L756.6219920897097,438.5999449354222 M756.6219920897097,438.5999449354222 L756.9165996719654,438.33093110348295 M756.9165996719654,438.33093110348295 L757.2052533167433,438.0441914206442 M601.671997367062,346.8377964213783 L758.0242943631789,437.0892283138646 M600.8530026717855,347.7926276388102 L601.1345617840602,347.4893310298816 M601.1345617840602,347.4893310298816 L601.4079201781831,347.1706342074149 M601.4079201781831,347.1706342074149 L601.671997367062,346.8377964213783 M757.2052533167433,438.0441914206442 L757.4868259597625,437.74085085611193 M757.4868259597625,437.74085085611193 L757.7601998246404,437.42211001253827 M757.7601998246404,437.42211001253827 L758.0242943631789,437.0892283138646 M602.3983326337036,345.7678149628722 L758.7506922323619,436.01911749422777 M601.671997367062,346.8377964213783 L601.9257501001574,346.49213137368275 M601.9257501001574,346.49213137368275 L602.1681816769091,346.1350004950892 M602.1681816769091,346.1350004950892 L602.3983326337036,345.7678149628722 M758.0242943631789,437.0892283138646 L758.2780662564144,436.74351963541335 M758.2780662564144,436.74351963541335 L758.5205187281728,436.38634557952446 M758.5205187281728,436.38634557952446 L758.7506922323619,436.01911749422777 M603.0062892369554,344.6205810090904 L759.3587254718748,434.87176128866327 M602.3983326337036,345.7678149628722 L602.6152993713283,345.3920212459553 M602.6152993713283,345.3920212459553 L602.81821552868,345.0091078291273 M602.81821552868,345.0091078291273 L603.0062892369554,344.6205810090904 M758.7506922323619,436.01911749422777 L758.9676830807786,435.6432820157828 M758.9676830807786,435.6432820157828 L759.170624817209,435.260327795061 M759.170624817209,435.260327795061 L759.3587254718748,434.87176128866327 M603.4743284114531,343.4367363533831 L759.8268526015542,433.6878058214645 M603.0062892369554,344.6205810090904 L603.1787751801941,344.22797598905845 M603.1787751801941,344.22797598905845 L603.3349932230368,343.83284158360135 M603.3349932230368,343.83284158360135 L603.4743284114531,343.4367363533831 M759.3587254718748,434.87176128866327 L759.5312396224635,434.4791178568247 M759.5312396224635,434.4791178568247 L759.6874870223209,434.08394646561544 M759.6874870223209,434.08394646561544 L759.8268526015542,433.6878058214645 M603.785874365377,342.25821608749254 L760.1384947137816,432.5091901092268 M603.4743284114531,343.4367363533831 L603.596230973781,343.04122356336467 M603.596230973781,343.04122356336467 L603.7002163218053,342.64786614099006 M603.7002163218053,342.64786614099006 L603.785874365377,342.25821608749254 M759.8268526015542,433.6878058214645 L759.9487864685537,433.29225932908264 M759.9487864685537,433.29225932908264 L760.0528039115599,432.8988700493677 M760.0528039115599,432.8988700493677 L760.1384947137816,432.5091901092268 M603.9298733227832,341.12677907957976 L760.2825946262199,431.3776764034461 M603.785874365377,342.25821608749254 L603.8528602000297,341.8738152349999 M603.8528602000297,341.8738152349999 L603.9009313621755,341.49616801722505 M603.9009313621755,341.49616801722505 L603.9298733227832,341.12677907957976 M760.1384947137816,432.5091901092268 L760.2055138414585,432.12476145962 M760.2055138414585,432.12476145962 L760.2536186996064,431.74708864115144 M760.2536186996064,431.74708864115144 L760.2825946262199,431.3776764034461 M603.9012501731036,340.0824915483094 L760.2540736519321,430.33333363643055 M603.9298733227832,341.12677907957976 L603.9012501731036,340.0824915483094 M760.2825946262199,431.3776764034461 L760.2540736519321,430.33333363643055 M603.7010019401442,339.1623573105323 L760.05392519511,429.4131675839236 M603.9012501731036,340.0824915483094 L603.8533367806014,339.7602772172022 M603.8533367806014,339.7602772172022 L603.7865067610043,339.45315755123096 M603.7865067610043,339.45315755123096 L603.7010019401442,339.1623573105323 M760.2540736519321,430.33333363643055 L760.2061939622471,430.0111060257012 M760.2061939622471,430.0111060257012 L760.1393972451738,429.7039757399107 M760.1393972451738,429.7039757399107 L760.05392519511,429.4131675839236 M603.336216771427,338.3989758104565 L759.6892338686152,428.649778817927 M603.7010019401442,339.1623573105323 L603.5971665964867,338.8890203264441 M603.5971665964867,338.8890203264441 L603.4754102088809,338.63422530190894 M603.4754102088809,338.63422530190894 L603.336216771427,338.3989758104565 M760.05392519511,429.4131675839236 L759.9501219611759,429.13982541944654 M759.9501219611759,429.13982541944654 L759.8283968955169,428.88502796989553 M759.8283968955169,428.88502796989553 L759.6892338686152,428.649778817927 M602.819832159249,337.819381596501 L759.1729338402919,428.07020214238696 M603.336216771427,338.3989758104565 L603.1801354815186,338.1842004644094 M603.1801354815186,338.1842004644094 L603.0077807413228,337.9907478723433 M603.0077807413228,337.9907478723433 L602.819832159249,337.819381596501 M759.6892338686152,428.649778817927 L759.5331819578358,428.43500657454877 M759.5331819578358,428.43500657454877 L759.3608554493898,428.2415598363003 M759.3608554493898,428.2415598363003 L759.1729338402919,428.07020214238696 M602.1701323709945,337.4441125188509 L758.5233063810228,427.6949747873938 M602.819832159249,337.819381596501 L602.6170345511478,337.6707762866971 M602.6170345511478,337.6707762866971 L602.4001793146315,337.5455238994252 M602.4001793146315,337.5455238994252 L602.1701323709945,337.4441125188509 M759.1729338402919,428.07020214238696 L758.9701618399289,427.9216081083689 M758.9701618399289,427.9216081083689 L758.7533307448208,427.796369647408 M758.7533307448208,427.796369647408 L758.5233063810228,427.6949747873938 M599.058396009406,335.69153900077515 L755.4119121244375,425.94260358552015 M602.1701323709945,337.4441125188509 L599.058396009406,335.69153900077515 M758.5233063810228,427.6949747873938 L755.4119121244375,425.94260358552015 M595.4979435966226,341.7822221046184 L751.8510713800498,432.0339677798181 M599.058396009406,335.69153900077515 L595.4979435966226,341.7822221046184 M755.4119121244375,425.94260358552015 L751.8510713800498,432.0339677798181 M594.9344632114062,342.9462789369776 L751.2875102606454,433.1981435166085 M595.4979435966226,341.7822221046184 L595.2950255930697,342.16513933545616 M595.2950255930697,342.16513933545616 L595.1069503512673,342.553670034375 M595.1069503512673,342.553670034375 L594.9344632114062,342.9462789369776 M751.8510713800498,432.0339677798181 L751.6481277969481,432.41692581536313 M751.6481277969481,432.41692581536313 L751.4600256082967,432.8054962014369 M751.4600256082967,432.8054962014369 L751.2875102606454,433.1981435166085 M594.5170060097118,344.13304242575714 L750.8699620053044,434.3850131094158 M594.9344632114062,342.9462789369776 L594.77824432771,343.341417167469 M594.77824432771,343.341417167469 L594.6389086674449,343.73752610486997 M594.6389086674449,343.73752610486997 L594.5170060097118,344.13304242575714 M751.2875102606454,433.1981435166085 L751.1312620195195,433.5933187335704 M751.1312620195195,433.5933187335704 L750.9918959680543,433.9894630855674 M750.9918959680543,433.9894630855674 L750.8699620053044,434.3850131094158 M594.2603787416315,345.3004597509553 L750.6132365898095,435.5525199770227 M594.5170060097118,344.13304242575714 L594.4130209442843,344.5264031469827 M594.4130209442843,344.5264031469827 L594.3273635568511,344.9160562152903 M594.3273635568511,344.9160562152903 L594.2603787416315,345.3004597509553 M750.8699620053044,434.3850131094158 L750.7659448445926,434.77840568850434 M750.7659448445926,434.77840568850434 L750.6802546982556,435.1680886438945 M750.6802546982556,435.1680886438945 L750.6132365898095,435.5525199770227 M594.1736513674721,346.4071864137688 L750.5264074514176,436.65931645118667 M594.2603787416315,345.3004597509553 L594.2123089458094,345.6781092781041 M594.2123089458094,345.6781092781041 L594.1833686772356,346.04750011472595 M594.1833686772356,346.04750011472595 L594.1736513674721,346.4071864137688 M750.6132365898095,435.5525199770227 L750.5651330978387,435.9301951051185 M750.5651330978387,435.9301951051185 L750.5361588631704,436.29960924195404 M750.5361588631704,436.29960924195404 L750.5264074514176,436.65931645118667 M594.2599146413739,347.4140049772698 L750.6125689493327,437.6661826194579 M594.1736513674721,346.4071864137688 L594.1832131931161,346.75573834227225 M594.1832131931161,346.75573834227225 L594.2119985660808,347.0917906168043 M594.2119985660808,347.0917906168043 L594.2599146413739,347.4140049772698 M750.5264074514176,436.65931645118667 L750.5359351737632,437.00788681504264 M750.5359351737632,437.00788681504264 L750.5646865767108,437.34395497962373 M750.5646865767108,437.34395497962373 L750.6125689493327,437.6661826194579 M594.5160935948467,348.2852590673167 L750.8686497205175,438.53746042369005 M594.2599146413739,347.4140049772698 L594.3267474938693,347.72112418514047 M594.3267474938693,347.72112418514047 L594.4122552533258,348.0119234873155 M594.4122552533258,348.0119234873155 L594.5160935948467,348.2852590673167 M750.6125689493327,437.6661826194579 L750.6793684995055,437.9733124467987 M750.6793684995055,437.9733124467987 L750.7648434884188,438.2641196638226 M750.7648434884188,438.2641196638226 L750.8686497205175,438.53746042369005 M594.9331335859366,348.99007217972354 L751.2855986011217,439.24227251698005 M594.5160935948467,348.2852590673167 L594.6378529923056,348.54005224434206 M594.6378529923056,348.54005224434206 L594.7770494041011,348.7752994740289 M594.7770494041011,348.7752994740289 L594.9331335859366,348.99007217972354 M750.8686497205175,438.53746042369005 L750.9903777963746,438.7922560251334 M750.9903777963746,438.7922560251334 L751.1295437980007,439.02750291467294 M751.1295437980007,439.02750291467294 L751.2855986011217,439.24227251698005 M595.4962422524002,349.5034866070118 L751.8486264564896,439.7556612303657 M594.9331335859366,348.99007217972354 L595.1054910900534,349.18352179447646 M595.1054910900534,349.18352179447646 L595.2934422644583,349.35488480299244 M595.2934422644583,349.35488480299244 L595.4962422524002,349.5034866070118 M751.2855986011217,439.24227251698005 L751.4579278739287,439.4357162771529 M751.4579278739287,439.4357162771529 L751.6458520758164,439.60707070294586 M751.6458520758164,439.60707070294586 L751.8486264564896,439.7556612303657 M596.1854854011466,349.80730632953674 L752.5378019562426,440.05943145337096 M595.4962422524002,349.5034866070118 L595.7130996187807,349.6287353052548 M595.7130996187807,349.6287353052548 L595.9431484086657,349.73014287181763 M595.9431484086657,349.73014287181763 L596.1854854011466,349.80730632953674 M751.8486264564896,439.7556612303657 L752.0654596819353,439.8808960014778 M752.0654596819353,439.8808960014778 L752.2954858924506,439.9822870466671 M752.2954858924506,439.9822870466671 L752.5378019562426,440.05943145337096 M596.9764387969245,349.8907733123142 L753.3287032615369,440.1428269056146 M596.1854854011466,349.80730632953674 L596.4391514815655,349.85992254104485 M596.4391514815655,349.85992254104485 L596.7031502679606,349.8877811482674 M596.7031502679606,349.8877811482674 L596.9764387969245,349.8907733123142 M752.5378019562426,440.05943145337096 L752.7914488412655,440.1120261597497 M752.7914488412655,440.1120261597497 L753.0554302413098,440.13986089199716 M753.0554302413098,440.13986089199716 L753.3287032615369,440.1428269056146 M597.8410821194764,349.75093140670987 L754.193311897386,440.0028939726121 M596.9764387969245,349.8907733123142 L597.257936836945,349.86888767878224 M597.257936836945,349.86888767878224 L597.5465268875007,349.8222147472639 M597.5465268875007,349.8222147472639 L597.8410821194764,349.75093140670987 M753.3287032615369,440.1428269056146 L753.6101877316909,440.1209129495933 M753.6101877316909,440.1209129495933 L753.8987662047723,440.074209636164 M753.8987662047723,440.074209636164 L754.193311897386,440.0028939726121 M598.7487860711964,349.3927344369926 L755.1009997949336,439.6445897032643 M597.8410821194764,349.75093140670987 L598.14042912039,349.65532547575117 M598.14042912039,349.65532547575117 L598.4433944615944,349.5357701527443 M598.4433944615944,349.5357701527443 L598.7487860711964,349.3927344369926 M754.193311897386,440.0028939726121 L754.4926514346819,439.90725390654836 M754.4926514346819,439.90725390654836 L754.7956114174219,439.78766277005195 M754.7956114174219,439.78766277005195 L755.1009997949336,439.6445897032643 M598.7487860711964,349.3927344369926 L598.8509072070043,349.33993732578375 M598.8509072070043,349.33993732578375 L598.9531220121296,349.28461439565694 M598.9531220121296,349.28461439565694 L599.0553839196723,349.2267918687895 M755.1009997949336,439.6445897032643 L755.203120328327,439.59177982627557 M755.203120328327,439.59177982627557 L755.3053347690941,439.5364439810859 M755.3053347690941,439.5364439810859 L755.4075965504029,439.47860839581335" stroke="black"  stroke-width="4"  fill="red"/>
<path d="M236.06102303102824,417.8033237563109 L392.36818499354456,508.06004042758116 M229.12777105812546,403.30775928789785 L385.43671370453,493.5643382293089 M236.06102303102824,417.8033237563109 L235.60436952889825,412.92094368548544 M235.60436952889825,412.92094368548544 L234.2533878879152,408.76877623010466 M234.2533878879152,408.76877623010466 L232.06419813252785,405.51937136535446 M232.06419813252785,405.51937136535446 L229.12777105812546,403.30775928789785 M392.36818499354456,508.06004042758116 L391.91202682795506,503.17743312507173 M391.91202682795506,503.17743312507173 L390.56151995397704,499.0251650889163 M390.56151995397704,499.0251650889163 L388.3727646662626,495.7757904767301 M388.3727646662626,495.7757904767301 L385.43671370453,493.5643382293089 M214.08184947950463,394.96621858537185 L370.39243139372763,485.22378256831814 M229.12777105812546,403.30775928789785 L214.08184947950463,394.96621858537185 M385.43671370453,493.5643382293089 L370.39243139372763,485.22378256831814 M199.03609971751263,420.6832110929746 L355.34504262358473,510.9436520518193 M214.08184947950463,394.96621858537185 L199.03609971751263,420.6832110929746 M370.39243139372763,485.22378256831814 L355.34504262358473,510.9436520518193 M192.10301906142735,443.1860141142429 L348.4101814032569,533.448372496417 M199.03609971751263,420.6832110929746 L196.0996480171026,426.28602491257084 M196.0996480171026,426.28602491257084 L193.91047035160943,432.0637165138654 M193.91047035160943,432.0637165138654 L192.55954695647154,437.776177810023 M192.55954695647154,437.776177810023 L192.10301906142735,443.1860141142429 M355.34504262358473,510.9436520518193 L352.40821486118136,516.5470597879545 M352.40821486118136,516.5470597879545 L350.21860276579457,522.3252830797071 M350.21860276579457,522.3252830797071 L348.86720462696434,528.0381917423957 M348.86720462696434,528.0381917423957 L348.4101814032569,533.448372496417 M192.10301906142735,443.1860141142429 L192.74187737382084,448.8902973269643 M192.74187737382084,448.8902973269643 L194.62096483435516,453.5254259167714 M194.62096483435516,453.5254259167714 L197.6310675856867,456.822020840298 M197.6310675856867,456.822020840298 L201.59721829886718,458.58853715342684 M201.59721829886718,458.58853715342684 L206.2889168768117,458.72232183669655 M206.2889168768117,458.72232183669655 L211.4334887709897,457.21562498883634 M211.4334887709897,457.21562498883634 L216.73196052949817,454.15603112306826 M216.73196052949817,454.15603112306826 L221.8764135927873,449.72136353250767 M221.8764135927873,449.72136353250767 L226.56789447397017,444.1693374266422 M226.56789447397017,444.1693374266422 L230.53376440357783,437.8226079241987 M230.53376440357783,437.8226079241987 L233.54356749958072,431.05000330815983 M233.54356749958072,431.05000330815983 L235.42238478273111,424.24508811867713 M235.42238478273111,424.24508811867713 L236.06102303102824,417.8033237563109 M348.4101814032569,533.448372496417 L349.04845516040433,539.1529110562223 M349.04845516040433,539.1529110562223 L350.92699203490554,543.7881162021592 M350.92699203490554,543.7881162021592 L353.9366101659365,547.0846044434759 M353.9366101659365,547.0846044434759 L357.90237038467137,548.8508370435275 M357.90237038467137,548.8508370435275 L362.5937952858735,548.984177474779 M362.5937952858735,548.984177474779 L367.73822622384887,547.4769016593787 M367.73822622384887,547.4769016593787 L373.0366979366381,544.4166277602477 M373.0366979366381,544.4166277602477 L378.1812918673479,539.98121859217 M378.1812918673479,539.98121859217 L382.8730463443071,534.4284324590666 M382.8730463443071,534.4284324590666 L386.8393066999156,528.0809686462451 M386.8393066999156,528.0809686462451 L389.84959436427266,521.3076981059103 M389.84959436427266,521.3076981059103 L391.72896220102746,514.5022240745574 M391.72896220102746,514.5022240745574 L392.36818499354456,508.06004042758116" stroke="black"  stroke-width="4"  fill="red"/>
<path d="M186.24290476625623,428.5202679688814 L29.973942862805984,338.28122253149434 M210.66400253996522,414.4190956641531 L54.39504018398213,324.18318335964636 M186.24290476625623,428.5202679688814 L186.59761987692372,424.941464936001 M186.59761987692372,424.941464936001 L187.64137009156036,421.16087976364065 M187.64137009156036,421.16087976364065 L189.31349515827458,417.3982314665708 M189.31349515827458,417.3982314665708 L191.51681205697918,413.87219633446426 M191.51681205697918,413.87219633446426 L194.12327495981305,410.7877046378798 M194.12327495981305,410.7877046378798 L196.98138733440112,408.32402253514834 M196.98138733440112,408.32402253514834 L199.9250537824184,406.62432693136935 M199.9250537824184,406.62432693136935 L202.78318181461663,405.78740293560753 M202.78318181461663,405.78740293560753 L205.38967915349423,405.86187277985283 M205.38967915349423,405.86187277985283 L207.5930544044037,406.84341325204764 M207.5930544044037,406.84341325204764 L209.2652669584611,408.67496128694694 M209.2652669584611,408.67496128694694 L210.30913682152948,411.250073983938 M210.30913682152948,411.250073983938 L210.66400253996522,414.4190956641531 M29.973942862805984,338.28122253149434 L30.328333372110706,334.7026524243798 M30.328333372110706,334.7026524243798 L31.37177783471992,330.9223776884669 M31.37177783471992,330.9223776884669 L33.04363376832123,327.1600992959176 M33.04363376832123,327.1600992959176 L35.246733794323575,323.63447203725093 M35.246733794323575,323.63447203725093 L37.853044690373395,320.55040247784063 M37.853044690373395,320.55040247784063 L40.71107875847264,318.0871322402693 M40.71107875847264,318.0871322402693 L43.6547451519416,316.3878142943155 M43.6547451519416,316.3878142943155 L46.51295138470283,315.5512117992816 M46.51295138470283,315.5512117992816 L49.11960063376523,315.6259283053974 M49.11960063376523,315.6259283053974 L51.32319267571904,316.6076262650153 M51.32319267571904,316.6076262650153 L52.995674300917926,318.4392334633506 M52.995674300917926,318.4392334633506 L54.03984987733065,321.0143035623885 M54.03984987733065,321.0143035623885 L54.39504018398213,324.18318335964636 M210.66400253996522,414.4190956641531 L210.30925030977102,417.9978492376673 M210.30925030977102,417.9978492376673 L209.26549576117088,421.77835422386465 M209.26549576117088,421.77835422386465 L207.59340013881643,425.5409099776796 M207.59340013881643,425.5409099776796 L205.3901397173131,429.06686140984834 M205.3901397173131,429.06686140984834 L202.78374738659517,432.15129742464774 M202.78374738659517,432.15129742464774 L199.92570351142825,434.61496461959814 M199.92570351142825,434.61496461959814 L196.98208779808635,436.31468950495855 M196.98208779808635,436.31468950495855 L194.12398111289247,437.15168026347817 M194.12398111289247,437.15168026347817 L191.5174708431225,437.07729936872227 M191.5174708431225,437.07729936872227 L189.31405134568064,436.09584965541103 M189.31405134568064,436.09584965541103 L187.6417733658339,434.26437339703944 M187.6417733658339,434.26437339703944 L186.5978318859555,431.6892970511277 M186.5978318859555,431.6892970511277 L186.24290476625623,428.5202679688814 M54.39504018398213,324.18318335964636 L54.04061255245597,327.7617040120654 M54.04061255245597,327.7617040120654 L52.99716374841046,331.5418985747604 M52.99716374841046,331.5418985747604 L51.325337248630376,335.3040844423094 M51.325337248630376,335.3040844423094 L49.12229368863916,338.82962802042 M49.12229368863916,338.82962802042 L46.51605335542695,341.9136419141139 M46.51605335542695,341.9136419141139 L43.6580877815079,344.376897252979 M43.6580877815079,344.376897252979 L40.71447212271147,346.0762444805159 M40.71447212271147,346.0762444805159 L37.85628724219055,346.91291372923615 M37.85628724219055,346.91291372923615 L35.249625071510934,346.8382861565429 M35.249625071510934,346.8382861565429 L33.04598879421428,345.8566789364272 M33.04598879421428,345.8566789364272 L31.373441753766542,344.025143496364 M31.373441753766542,344.025143496364 L30.329194568020682,341.4501097354573 M30.329194568020682,341.4501097354573 L29.973942862805984,338.28122253149434" stroke="black"  stroke-width="4"  fill="red"/>
<path d="M186.24290476625623,428.5202679688814 L186.59761987692372,424.941464936001 M186.59761987692372,424.941464936001 L187.64137009156036,421.16087976364065 M187.64137009156036,421.16087976364065 L189.31349515827458,417.3982314665708 M189.31349515827458,417.3982314665708 L191.51681205697918,413.87219633446426 M191.51681205697918,413.87219633446426 L194.12327495981305,410.7877046378798 M194.12327495981305,410.7877046378798 L196.98138733440112,408.32402253514834 M196.98138733440112,408.32402253514834 L199.9250537824184,406.62432693136935 M199.9250537824184,406.62432693136935 L202.78318181461663,405.78740293560753 M202.78318181461663,405.78740293560753 L205.38967915349423,405.86187277985283 M205.38967915349423,405.86187277985283 L207.5930544044037,406.84341325204764 M207.5930544044037,406.84341325204764 L209.2652669584611,408.67496128694694 M209.2652669584611,408.67496128694694 L210.30913682152948,411.250073983938 M210.30913682152948,411.250073983938 L210.66400253996522,414.4190956641531 M210.66400253996522,414.4190956641531 L236.0610090576007,417.8033318249936 M192.10302837762794,443.1860087347849 L192.7415510176217,436.74408681087175 M192.7415510176217,436.74408681087175 L194.62035891928213,429.9389145020808 M194.62035891928213,429.9389145020808 L197.630248102437,423.16601541908676 M197.630248102437,423.16601541908676 L201.59630102212736,416.8190201005161 M201.59630102212736,416.8190201005161 L206.28800590190548,411.2668216478318 M206.28800590190548,411.2668216478318 L211.43268090553403,406.8321057533176 M211.43268090553403,406.8321057533176 L216.73130772838624,403.7726121391071 M216.73130772838624,403.7726121391071 L221.87594878533332,402.2661316057219 M221.87594878533332,402.2661316057219 L226.5676008060691,402.4002018023062 M226.5676008060691,402.4002018023062 L230.53360815670203,404.1670068026431 M230.53360815670203,404.1670068026431 L233.54349426693864,407.4638369778709 M233.54349426693864,407.4638369778709 L235.4223496865025,412.09907797124856 M235.4223496865025,412.09907797124856 L236.0610090576007,417.8033318249936 M186.24290476625623,428.5202679688814 L192.10302837762794,443.1860087347849 M210.66400253996522,414.4190956641531 L210.30925030977102,417.9978492376673 M210.30925030977102,417.9978492376673 L209.26549576117088,421.77835422386465 M209.26549576117088,421.77835422386465 L207.59340013881643,425.5409099776796 M207.59340013881643,425.5409099776796 L205.3901397173131,429.06686140984834 M205.3901397173131,429.06686140984834 L202.78374738659517,432.15129742464774 M202.78374738659517,432.15129742464774 L199.92570351142825,434.61496461959814 M199.92570351142825,434.61496461959814 L196.98208779808635,436.31468950495855 M196.98208779808635,436.31468950495855 L194.12398111289247,437.15168026347817 M194.12398111289247,437.15168026347817 L191.5174708431225,437.07729936872227 M191.5174708431225,437.07729936872227 L189.31405134568064,436.09584965541103 M189.31405134568064,436.09584965541103 L187.6417733658339,434.26437339703944 M187.6417733658339,434.26437339703944 L186.5978318859555,431.6892970511277 M186.5978318859555,431.6892970511277 L186.24290476625623,428.5202679688814 M236.0610090576007,417.8033318249936 L235.42236615153985,424.24509349901746 M235.42236615153985,424.24509349901746 L233.54355352617762,431.05000062109195 M233.54355352617762,431.05000062109195 L230.53375508793584,437.8226025476356 M230.53375508793584,437.8226025476356 L226.56788515823598,444.16932667228923 M226.56788515823598,444.16932667228923 L221.8764089347436,449.72134471071297 M221.8764089347436,449.72134471071297 L216.7319558713565,454.15601230129505 M216.7319558713565,454.15601230129505 L211.43349342854276,457.21560078764946 M211.43349342854276,457.21560078764946 L206.28892153433492,458.7222976354142 M206.28892153433492,458.7222976354142 L201.59722761446437,458.5885156402127 M201.59722761446437,458.5885156402127 L197.63107690145273,456.82200470491796 M197.63107690145273,456.82200470491796 L194.6209834662696,453.52540440182895 M194.6209834662696,453.52540440182895 L192.74188668982953,448.89028656945607 M192.74188668982953,448.89028656945607 L192.10302837762794,443.1860087347849" stroke="black"  stroke-width="4"  fill="red"/>
<path d="M236.0608927751514,282.45043634085835 L392.38108304873253,372.69963362057683 M229.12706296287456,267.95145468017455 L385.4490342172072,358.2005137160426 M236.0608927751514,282.45043634085835 L235.6042012142325,277.5671765012194 M235.6042012142325,277.5671765012194 L234.2531069788581,273.4141218848823 M234.2531069788581,273.4141218848823 L232.06373476967434,270.16385933159995 M232.06373476967434,270.16385933159995 L229.12706296287456,267.95145468017455 M392.38108304873253,372.69963362057683 L391.92488690693153,367.81614640626873 M391.92488690693153,367.81614640626873 L390.5742675177114,363.6629910721141 M390.5742675177114,363.6629910721141 L388.38532984863264,360.4127586459897 M388.38532984863264,360.4127586459897 L385.4490342172072,358.2005137160426 M214.0798873720817,259.6063487034227 L370.40349816778814,349.8563923075252 M229.12706296287456,267.95145468017455 L214.0798873720817,259.6063487034227 M385.4490342172072,358.2005137160426 L370.40349816778814,349.8563923075252 M199.03288362663653,285.325458685154 L355.3548551407017,375.57837973855715 M214.0798873720817,259.6063487034227 L199.03288362663653,285.325458685154 M370.40349816778814,349.8563923075252 L355.3548551407017,375.57837973855715 M192.099225159735,307.831011868519 L348.4194158127243,398.08585085932174 M199.03288362663653,285.325458685154 L196.09618718972405,290.928782537814 M196.09618718972405,290.928782537814 L193.90682707244991,296.70712120082845 M193.90682707244991,296.70712120082845 L192.55579109301823,302.42033969605063 M192.55579109301823,302.42033969605063 L192.099225159735,307.831011868519 M355.3548551407017,375.57837973855715 L352.417782579104,381.18229761633864 M352.417782579104,381.18229761633864 L350.2279879595137,386.96116809523977 M350.2279879595137,386.96116809523977 L348.87647715724603,392.6748340940542 M348.87647715724603,392.6748340940542 L348.4194158127243,398.08585085932174 M192.099225159735,307.831011868519 L192.73813673290869,313.53633815928373 M192.73813673290869,313.53633815928373 L194.6173808211144,318.1725106457771 M194.6173808211144,318.1725106457771 L197.627734462047,321.4700896164482 M197.627734462047,321.4700896164482 L201.59421574186428,323.2374729419673 M201.59421574186428,323.2374729419673 L206.28630535092384,323.3719545294489 M206.28630535092384,323.3719545294489 L211.43130601435888,321.8657492033781 M211.43130601435888,321.8657492033781 L216.73021936305304,318.8064102286088 M216.73021936305304,318.8064102286088 L221.87510117579114,314.3717460887488 M221.87510117579114,314.3717460887488 L226.5669730518789,308.8194744832401 M226.5669730518789,308.8194744832401 L230.53317350131908,302.47225957508306 M230.53317350131908,302.47225957508306 L233.54322743697264,295.69896054505756 M233.54322743697264,295.69896054505756 L235.42220130236927,288.8931822822006 M235.42220130236927,288.8931822822006 L236.0608927751514,282.45043634085835 M348.4194158127243,398.08585085932174 L349.05774273320156,403.79143266591814 M349.05774273320156,403.79143266591814 L350.93643614358643,408.4276818674725 M350.93643614358643,408.4276818674725 L353.94630508342743,411.72515429581193 M353.94630508342743,411.72515429581193 L357.91239580369916,413.4922540209512 M357.91239580369916,413.4922540209512 L362.6042116906491,413.62629143523293 M362.6042116906491,413.62629143523293 L367.7490713743798,412.11950718227297 M367.7490713743798,412.11950718227297 L373.04798467734327,409.05948817411394 M373.04798467734327,409.05948817411394 L378.1930073809815,404.6240824160342 M378.1930073809815,404.6240824160342 L382.8851528981928,399.0710507044245 M382.8851528981928,399.0710507044245 L386.85174383871663,392.7231013731584 M386.85174383871663,392.7231013731584 L389.8622824235024,385.94913627893766 M389.8622824235024,385.94913627893766 L391.741806934283,379.1427990152718 M391.741806934283,379.1427990152718 L392.38108304873253,372.69963362057683" stroke="black"  stroke-width="4"  fill="red"/>
<path d="M186.23862253574475,293.1664876249391 L29.956638689179954,202.9349615796075 M210.66175566694204,279.0664902251757 L54.37977136773122,188.83809731272873 M186.23862253574475,293.1664876249391 L186.59336720153925,289.5871392551869 M186.59336720153925,289.5871392551869 L187.63720440016067,285.8060745781739 M187.63720440016067,285.8060745781739 L189.3094688244484,282.04304047698236 M189.3094688244484,282.04304047698236 L191.51296935471743,278.51673566353645 M191.51296935471743,278.51673566353645 L194.11964949095022,275.43210608396953 M194.11964949095022,275.43210608396953 L196.97800007392124,272.9684259087324 M196.97800007392124,272.9684259087324 L199.92191186165417,271.2688719315664 M199.92191186165417,271.2688719315664 L202.78027810484525,270.4322210288367 M202.78027810484525,270.4322210288367 L205.3869926828619,270.50707955978555 M205.3869926828619,270.50707955978555 L207.59055157506253,271.48910172182394 M207.59055157506253,271.48910172182394 L209.2629035012768,273.32119645341453 M209.2629035012768,273.32119645341453 L210.30686036827433,275.89688908183274 M210.30686036827433,275.89688908183274 L210.66175566694204,279.0664902251757 M29.956638689179954,202.9349615796075 L30.311058699510397,199.35584622934874 M30.311058699510397,199.35584622934874 L31.354590095143635,195.57509207706477 M31.354590095143635,195.57509207706477 L33.02658534145968,191.81242795809794 M33.02658534145968,191.81242795809794 L35.22986896287682,188.28653108070256 M35.22986896287682,188.28653108070256 L37.836397066986535,185.20232368218763 M37.836397066986535,185.20232368218763 L40.69466933041298,182.73905539470547 M40.69466933041298,182.73905539470547 L43.63858106358407,181.03987907536356 M43.63858106358407,181.03987907536356 L46.4970255203674,180.20354965076496 M46.4970255203674,180.20354965076496 L49.10389203388365,180.27865479970552 M49.10389203388365,180.27865479970552 L51.30766775325765,181.2608343865569 M51.30766775325765,181.2608343865569 L52.98028879545677,183.09298820388113 M52.98028879545677,183.09298820388113 L54.02455142674978,185.66863814606756 M54.02455142674978,185.66863814606756 L54.37977136773122,188.83809731272873 M210.66175566694204,279.0664902251757 L210.3069738754332,282.64578911783576 M210.3069738754332,282.64578911783576 L209.26313234212557,286.42677358800995 M209.26313234212557,286.42677358800995 L207.59089736710564,290.18971512705787 M207.59089736710564,290.18971512705787 L205.38745332345218,293.7159362277911 M205.38745332345218,293.7159362277911 L202.78084377109917,296.8005101218385 M202.78084377109917,296.8005101218385 L199.92256169896774,299.2641753954563 M199.92256169896774,299.2641753954563 L196.97870065436746,300.96375866884995 M196.97870065436746,300.96375866884995 L194.12035576173918,301.80047635411296 M194.12035576173918,301.80047635411296 L191.51362825067486,301.7257067930278 M191.51362825067486,301.7257067930278 L189.31002510456642,300.74377540617877 M189.31002510456642,300.74377540617877 L187.63760774165684,298.9117524596176 M187.63760774165684,298.9117524596176 L186.59357924591126,296.33609618102855 M186.59357924591126,296.33609618102855 L186.23862253574475,293.1664876249391 M54.37977136773122,188.83809731272873 L54.02531422899085,192.41716319057025 M54.02531422899085,192.41716319057025 L52.981778491196906,196.1978371489664 M52.981778491196906,196.1978371489664 L51.309812683607504,199.96040872404984 M51.309812683607504,199.96040872404984 L49.10658553761294,203.4862219081187 M49.10658553761294,203.4862219081187 L46.50012800810231,206.570373637185 M46.50012800810231,206.570373637185 L43.64192425027318,209.03362703212196 M43.64192425027318,209.03362703212196 L40.69806326023195,210.73283264768992 M40.69806326023195,210.73283264768992 L37.83964015924869,211.5692288457451 M37.83964015924869,211.5692288457451 L35.232760721962165,211.4942126505956 M35.232760721962165,211.4942126505956 L33.02894075987274,210.51212381954713 M33.02894075987274,210.51212381954713 L31.356254291521452,208.6800417689932 M31.356254291521452,208.6800417689932 L30.3119200389591,206.10442816368715 M30.3119200389591,206.10442816368715 L29.956638689179954,202.9349615796075" stroke="black"  stroke-width="4"  fill="red"/>
<path d="M186.23862253574475,293.1664876249391 L186.59336720153925,289.5871392551869 M186.59336720153925,289.5871392551869 L187.63720440016067,285.8060745781739 M187.63720440016067,285.8060745781739 L189.3094688244484,282.04304047698236 M189.3094688244484,282.04304047698236 L191.51296935471743,278.51673566353645 M191.51296935471743,278.51673566353645 L194.11964949095022,275.43210608396953 M194.11964949095022,275.43210608396953 L196.97800007392124,272.9684259087324 M196.97800007392124,272.9684259087324 L199.92191186165417,271.2688719315664 M199.92191186165417,271.2688719315664 L202.78027810484525,270.4322210288367 M202.78027810484525,270.4322210288367 L205.3869926828619,270.50707955978555 M205.3869926828619,270.50707955978555 L207.59055157506253,271.48910172182394 M207.59055157506253,271.48910172182394 L209.2629035012768,273.32119645341453 M209.2629035012768,273.32119645341453 L210.30686036827433,275.89688908183274 M210.30686036827433,275.89688908183274 L210.66175566694204,279.0664902251757 M210.66175566694204,279.0664902251757 L236.0608788005593,282.4504444088687 M192.09923447671207,307.83100648950926 L192.73781032153113,301.3881029303073 M192.73781032153113,301.3881029303073 L194.61677480348544,294.5820674822714 M194.61677480348544,294.5820674822714 L197.62691484141737,287.8084739236404 M197.62691484141737,287.8084739236404 L201.59329831144328,281.46099315886045 M201.59329831144328,281.46099315886045 L206.28539422382767,275.908546505726 M206.28539422382767,275.908546505726 L211.430498013893,271.4738340818766 M211.430498013893,271.4738340818766 L216.72956645354697,268.4145954056665 M216.72956645354697,268.4145954056665 L221.87463629127188,266.9086064581351 M221.87463629127188,266.9086064581351 L226.56667933580246,267.0433763132197 M226.56667933580246,267.0433763132197 L230.53301722917485,268.8110483778828 M230.53301722917485,268.8110483778828 L233.54315419328805,272.1088626275777 M233.54315419328805,272.1088626275777 L235.42216620184337,276.74514751269516 M235.42216620184337,276.74514751269516 L236.0608788005593,282.4504444088687 M186.23862253574475,293.1664876249391 L192.09923447671207,307.83100648950926 M210.66175566694204,279.0664902251757 L210.3069738754332,282.64578911783576 M210.3069738754332,282.64578911783576 L209.26313234212557,286.42677358800995 M209.26313234212557,286.42677358800995 L207.59089736710564,290.18971512705787 M207.59089736710564,290.18971512705787 L205.38745332345218,293.7159362277911 M205.38745332345218,293.7159362277911 L202.78084377109917,296.8005101218385 M202.78084377109917,296.8005101218385 L199.92256169896774,299.2641753954563 M199.92256169896774,299.2641753954563 L196.97870065436746,300.96375866884995 M196.97870065436746,300.96375866884995 L194.12035576173918,301.80047635411296 M194.12035576173918,301.80047635411296 L191.51362825067486,301.7257067930278 M191.51362825067486,301.7257067930278 L189.31002510456642,300.74377540617877 M189.31002510456642,300.74377540617877 L187.63760774165684,298.9117524596176 M187.63760774165684,298.9117524596176 L186.59357924591126,296.33609618102855 M186.59357924591126,296.33609618102855 L186.23862253574475,293.1664876249391 M236.0608788005593,282.4504444088687 L235.42218266962527,288.89318766074797 M235.42218266962527,288.89318766074797 L233.543213462405,295.6989578555245 M233.543213462405,295.6989578555245 L230.53316418490067,302.47225419627904 M230.53316418490067,302.47225419627904 L226.56696373536835,308.81946372574976 M226.56696373536835,308.81946372574976 L221.87509651738537,314.37172995252365 M221.87509651738537,314.37172995252365 L216.73021470455768,318.8063940924053 M216.73021470455768,318.8063940924053 L211.43131067234356,321.8657276882139 M211.43131067234356,321.8657276882139 L206.28631000888714,323.3719330141991 M206.28631000888714,323.3719330141991 L201.59422505823784,323.237451426512 M201.59422505823784,323.237451426512 L197.62774377858938,321.47007347972345 M197.62774377858938,321.47007347972345 L194.6173994545817,318.172489129938 M194.6173994545817,318.172489129938 L192.73814604969385,313.53632740132736 M192.73814604969385,313.53632740132736 L192.09923447671207,307.83100648950926" stroke="black"  stroke-width="4"  fill="red"/></svg>